<?xml version="1.0" encoding="UTF-8"?>
<svg width="153px" height="153px" viewBox="0 0 153 153" version="1.1" xmlns="http://www.w3.org/2000/svg" xmlns:xlink="http://www.w3.org/1999/xlink">
    <!-- Generator: sketchtool 56.3 (101010) - https://sketch.com -->
    <title>ACF4FA22-07A8-4DF8-9DFC-636A774AE380</title>
    <desc>Created with sketchtool.</desc>
    <g id="Page-1" stroke="none" stroke-width="1" fill="none" fill-rule="evenodd">
        <g id="Charging-Basics" transform="translate(-643.000000, -2968.000000)" fill="#27BBE9">
            <g id="Group-11" transform="translate(643.000000, 2968.000000)">
                <path d="M44.00088,53.6638667 C31.4584356,53.6638667 21.2910133,63.8312889 21.2910133,76.3737333 C21.2910133,88.9161778 31.4584356,99.0836 44.00088,99.0836 C56.5433244,99.0836 66.7107467,88.9161778 66.7107467,76.3737333 C66.7107467,63.8312889 56.5433244,53.6638667 44.00088,53.6638667 M44.00088,85.8704 C38.7580356,85.8704 34.5076356,81.6165778 34.5076356,76.3737333 C34.5076356,71.1308889 38.7580356,66.8804889 44.00088,66.8804889 C49.2437244,66.8804889 53.4941244,71.1308889 53.4941244,76.3737333 C53.4941244,81.6165778 49.2437244,85.8704 44.00088,85.8704" id="Fill-1"></path>
                <path d="M108.749324,53.6638667 C96.20688,53.6638667 86.0394578,63.8312889 86.0394578,76.3737333 C86.0394578,88.9161778 96.20688,99.0836 108.749324,99.0836 C121.291769,99.0836 131.459191,88.9161778 131.459191,76.3737333 C131.459191,63.8312889 121.291769,53.6638667 108.749324,53.6638667 M108.749324,85.8704 C103.50648,85.8704 99.25608,81.6165778 99.25608,76.3737333 C99.25608,71.1308889 103.50648,66.8804889 108.749324,66.8804889 C113.992169,66.8804889 118.245991,71.1308889 118.245991,76.3737333 C118.245991,81.6165778 113.992169,85.8704 108.749324,85.8704" id="Fill-3"></path>
                <path d="M76.37476,152.748836 C34.2608933,152.748836 0.00102666667,118.488969 0.00102666667,76.3751022 C0.00102666667,34.2612356 34.2608933,0.00136888889 76.37476,0.00136888889 C118.488627,0.00136888889 152.748493,34.2612356 152.748493,76.3751022 C152.748493,118.488969 118.488627,152.748836 76.37476,152.748836 M76.37476,6.25376889 C37.7104933,6.25376889 6.25684889,37.7108356 6.25684889,76.3751022 C6.25684889,115.039369 37.7104933,146.493013 76.37476,146.493013 C115.039027,146.493013 146.492671,115.039369 146.492671,76.3751022 C146.492671,37.7108356 115.039027,6.25376889 76.37476,6.25376889" id="Fill-5"></path>
                <path d="M76.3751022,31.9515778 C69.1165689,31.9515778 63.2303467,37.8378 63.2303467,45.0963333 C63.2303467,52.3548667 69.1131467,58.2410889 76.3751022,58.2410889 C83.6336356,58.2410889 89.5198578,52.3548667 89.5198578,45.0963333 C89.5198578,37.8378 83.6336356,31.9515778 76.3751022,31.9515778 L76.3751022,31.9515778 Z M82.8157244,53.1454 L76.3751022,46.7082 L69.93448,53.1454 L68.3260356,51.5369556 L74.7632356,45.0963333 L68.3260356,38.6557111 L69.93448,37.0472667 L76.3751022,43.4878889 L82.8157244,37.0472667 L84.4241689,38.6557111 L77.9835467,45.0963333 L84.4241689,51.5369556 L82.8157244,53.1454 Z" id="Fill-7"></path>
                <path d="M76.3751022,94.5063778 C69.1165689,94.5063778 63.2303467,100.3926 63.2303467,107.651133 C63.2303467,114.909667 69.1131467,120.795889 76.3751022,120.795889 C83.6336356,120.795889 89.5198578,114.909667 89.5198578,107.651133 C89.5198578,100.3926 83.6336356,94.5063778 76.3751022,94.5063778 L76.3751022,94.5063778 Z M82.8157244,115.7002 L76.3751022,109.263 L69.93448,115.7002 L68.3260356,114.091756 L74.7632356,107.651133 L68.3260356,101.210511 L69.93448,99.6020667 L76.3751022,106.042689 L82.8157244,99.6020667 L84.4241689,101.210511 L77.9835467,107.651133 L84.4241689,114.091756 L82.8157244,115.7002 Z" id="Fill-9"></path>
            </g>
        </g>
    </g>
</svg>