<?xml version="1.0" encoding="UTF-8"?>
<svg width="258px" height="137px" viewBox="0 0 258 137" version="1.1" xmlns="http://www.w3.org/2000/svg" xmlns:xlink="http://www.w3.org/1999/xlink">
    <!-- Generator: sketchtool 56.3 (101010) - https://sketch.com -->
    <title>E0EC4365-B8B7-44E4-B53E-36CC28C40B8B</title>
    <desc>Created with sketchtool.</desc>
    <defs>
        <polygon id="path-1" points="0 0.184215091 128.773658 0.184215091 128.773658 136.093947 0 136.093947"></polygon>
        <polygon id="path-3" points="0.310473684 0.0912631579 69.3841579 0.0912631579 69.3841579 136 0.310473684 136"></polygon>
    </defs>
    <g id="Page-1" stroke="none" stroke-width="1" fill="none" fill-rule="evenodd">
        <g id="Charging-Basics" transform="translate(-1010.000000, -996.000000)">
            <g id="Group-17-Copy-2" transform="translate(1013.000000, 996.000000)">
                <g id="Group-3" transform="translate(1.789474, 0.000000)">
                    <mask id="mask-2" fill="white">
                        <use xlink:href="#path-1"></use>
                    </mask>
                    <g id="Clip-2"></g>
                    <path d="M126.742605,31.9465789 C126.612868,31.7631579 126.469711,31.5886842 126.304184,31.4231579 L97.2744474,1.69105263 C95.3507632,-0.286315789 92.1744474,-0.322105263 90.1926053,1.61052632 C88.2241842,3.53868421 88.1839211,6.71052632 90.1120789,8.68789474 L106.696026,25.67 C106.637868,26.0010526 106.606553,26.3410526 106.606553,26.6855263 L106.606553,43.4573684 C106.606553,45.1752632 107.326816,46.8260526 108.566026,48.0071053 L116.672342,55.6571053 L116.672342,98.1392105 C116.676816,99.2665789 116.556026,100.416316 116.318921,101.391579 C115.952079,102.881316 115.379447,103.834211 114.703921,104.415789 C114.3505,104.72 113.938921,104.975 113.272342,105.203158 C112.619184,105.426842 111.697605,105.610263 110.395763,105.610263 C108.704711,105.605789 107.554974,105.292632 106.673658,104.876579 C105.380763,104.263684 104.544184,103.351053 103.882079,102.129737 C103.224447,100.926316 102.911289,99.4097368 102.929184,98.3360526 L102.929184,70.8407895 C102.933658,66.0226316 101.551289,61.7681579 99.5291842,58.3994737 C96.4826053,53.3128947 92.2281316,50.1365789 88.8236579,48.1278947 C87.3070789,47.2331579 85.9381316,46.5755263 84.8555,46.1013158 L84.8555,21.5184211 C84.8510263,13.2465789 78.1539211,6.54947368 69.8865526,6.545 L24.7694474,6.545 C16.4976053,6.54947368 9.79602632,13.2465789 9.78707895,21.5184211 L9.78707895,122.892105 L-0.00134210526,122.892105 L-0.00134210526,136.093947 L94.6528684,136.093947 L94.6528684,122.892105 L84.8555,122.892105 L84.8555,59.9921053 C85.0210263,60.1173684 85.1910263,60.2426316 85.3476053,60.3723684 C86.8686579,61.5847368 88.2555,63.0655263 89.2307632,64.7521053 C90.1970789,66.4565789 90.8099737,68.34 90.8233947,70.8407895 L90.8233947,98.3360526 C90.8233947,100.362632 91.1365526,102.469737 91.8344474,104.603684 C92.8768158,107.78 94.7960263,111.068158 97.9678684,113.609211 C101.086026,116.141316 105.403132,117.711579 110.2705,117.711579 C110.319711,117.711579 110.3555,117.711579 110.395763,117.707105 C113.625763,117.716053 116.609711,117.094211 119.164184,115.841579 C123.051816,113.976053 125.6555,110.696842 127.002079,107.480263 C128.388921,104.241316 128.764711,101.011316 128.773658,98.1392105 L128.773658,36.4515789 C128.773658,34.6621053 127.986289,33.0560526 126.742605,31.9465789 L126.742605,31.9465789 Z M73.8055,60.9897368 C73.8055,63.1505263 72.0428684,64.9042105 69.8865526,64.9042105 L24.7739211,64.9042105 C22.6086579,64.9042105 20.8505,63.1505263 20.8505,60.9897368 L20.8505,21.5184211 C20.8505,19.3621053 22.6086579,17.5994737 24.7739211,17.5994737 L69.8865526,17.5994737 C72.0428684,17.5994737 73.8055,19.3621053 73.8055,21.5184211 L73.8055,60.9897368 Z" id="Fill-1" fill="#27BBE9" mask="url(#mask-2)"></path>
                </g>
                <path d="M38.2193276,32.2105263 L32.4648829,32.2105263 C31.8319838,32.2105263 31.3157895,32.7168264 31.3157895,33.3385985 L31.3157895,42.7140331 C31.3157895,43.3402464 31.8319838,43.8421053 32.4648829,43.8421053 L38.2193276,43.8421053 C38.8522267,43.8421053 39.3684211,43.3402464 39.3684211,42.7140331 L39.3684211,33.3385985 C39.3684211,32.7168264 38.8522267,32.2105263 38.2193276,32.2105263" id="Fill-4" fill="#27BBE9"></path>
                <path d="M51.6314029,32.2105263 L45.8814469,32.2105263 C45.2440591,32.2105263 44.7368421,32.7168264 44.7368421,33.3385985 L44.7368421,42.7140331 C44.7368421,43.3402464 45.2440591,43.8421053 45.8814469,43.8421053 L51.6314029,43.8421053 C52.2687907,43.8421053 52.7894737,43.3402464 52.7894737,42.7140331 L52.7894737,33.3385985 C52.7894737,32.7168264 52.2687907,32.2105263 51.6314029,32.2105263" id="Fill-6" fill="#27BBE9"></path>
                <path d="M65.0704101,32.2105263 L59.3069882,32.2105263 C58.6740891,32.2105263 58.1578947,32.7168264 58.1578947,33.3385985 L58.1578947,42.7140331 C58.1578947,43.3402464 58.6740891,43.8421053 59.3069882,43.8421053 L65.0704101,43.8421053 C65.6988206,43.8421053 66.2105263,43.3402464 66.2105263,42.7140331 L66.2105263,33.3385985 C66.2105263,32.7168264 65.6988206,32.2105263 65.0704101,32.2105263" id="Fill-8" fill="#27BBE9"></path>
                <g id="Group-12" transform="translate(185.210526, 0.894737)">
                    <mask id="mask-4" fill="white">
                        <use xlink:href="#path-3"></use>
                    </mask>
                    <g id="Clip-11"></g>
                    <path d="M68.7041579,43.9512632 C68.2746842,43.5307368 67.6707368,43.2667895 67.0623158,43.2667895 L60.8170526,43.2667895 L60.8170526,6.86889474 C60.8170526,3.12442105 57.8375789,0.0912631579 54.1825789,0.0912631579 C50.5052105,0.0912631579 47.5391579,3.12442105 47.5391579,6.86889474 L47.5391579,43.2667895 L22.1554737,43.2667895 L22.1554737,6.86889474 C22.1554737,3.12442105 19.1894211,0.0912631579 15.521,0.0912631579 C11.8481053,0.0912631579 8.86863158,3.12442105 8.86863158,6.86889474 L8.86863158,43.2667895 L2.63678947,43.2667895 C2.01942105,43.2667895 1.42442105,43.5307368 0.994947368,43.9512632 C0.561,44.3941579 0.310473684,45.0070526 0.310473684,45.6423158 L0.310473684,94.9736316 C0.310473684,95.5865263 0.547578947,96.2038947 0.994947368,96.6467895 C1.42889474,97.0852105 2.01494737,97.3491579 2.63678947,97.3491579 L29.1344211,97.3491579 C29.1344211,112.251 17.2254737,124.374684 2.59205263,124.374684 L2.59205263,136.001789 C23.5244211,136.001789 40.5557368,118.657316 40.5557368,97.3491579 L67.0623158,97.3491579 C67.6707368,97.3491579 68.2746842,97.0852105 68.7041579,96.6467895 C69.1336316,96.2038947 69.3841579,95.5865263 69.3841579,94.9736316 L69.3841579,45.6423158 C69.3841579,45.0070526 69.1336316,44.3941579 68.7041579,43.9512632" id="Fill-10" fill="#27BBE9" mask="url(#mask-4)"></path>
                </g>
                <path d="M96.8306453,99.2197235 L63.8229549,66.2105263 L96.8306453,33.2013291 L98.4210526,31.6153421 L96.8306453,30.0248622 L85.3922923,18.5904799 L83.8063777,17 L82.2159704,18.5904799 L49.20828,51.5951842 C38.2057165,40.5921185 27.2076457,29.5935456 16.2050822,18.5904799 L14.614675,17 L13.0287603,18.5904799 L1.5904073,30.0248622 L0,31.6153421 L1.5904073,33.2013291 L34.5980977,66.2105263 L1.5904073,99.2197235 L0,100.810203 L1.5904073,102.39619 L13.0287603,113.835066 L14.614675,115.421053 L16.2050822,113.835066 L49.20828,80.8258684 L82.2159704,113.835066 L83.8063777,115.421053 L85.3922923,113.835066 L96.8306453,102.39619 L98.4210526,100.810203 L96.8306453,99.2197235 Z" id="Fill-13" fill="#ED6929"></path>
                <path d="M96.8306453,99.2197235 L63.8229549,66.2105263 L96.8306453,33.2013291 L98.4210526,31.6153421 L96.8306453,30.0248622 L85.3922923,18.5904799 L83.8063777,17 L82.2159704,18.5904799 L49.20828,51.5951842 C38.2057165,40.5921185 27.2076457,29.5935456 16.2050822,18.5904799 L14.614675,17 L13.0287603,18.5904799 L1.5904073,30.0248622 L0,31.6153421 L1.5904073,33.2013291 L34.5980977,66.2105263 L1.5904073,99.2197235 L0,100.810203 L1.5904073,102.39619 L13.0287603,113.835066 L14.614675,115.421053 L16.2050822,113.835066 L49.20828,80.8258684 L82.2159704,113.835066 L83.8063777,115.421053 L85.3922923,113.835066 L96.8306453,102.39619 L98.4210526,100.810203 L96.8306453,99.2197235 Z" id="Stroke-15" stroke="#FEFEFE" stroke-width="3"></path>
            </g>
        </g>
    </g>
</svg>