<?xml version="1.0" encoding="UTF-8"?>
<svg width="32px" height="38px" viewBox="0 0 32 38" version="1.1" xmlns="http://www.w3.org/2000/svg" xmlns:xlink="http://www.w3.org/1999/xlink">
    <!-- Generator: sketchtool 56.2 (101010) - https://sketch.com -->
    <title>3153A321-18F3-43E1-A540-D06FD46A6E46</title>
    <desc>Created with sketchtool.</desc>
    <defs>
        <path d="M23.6666667,0.666666667 L3.66666667,0.666666667 C1.83333333,0.666666667 0.333333333,2.16666667 0.333333333,4 L0.333333333,27.3333333 L3.66666667,27.3333333 L3.66666667,4 L23.6666667,4 L23.6666667,0.666666667 Z M22,7.33333333 L32,17.3333333 L32,34 C32,35.8333333 30.5,37.3333333 28.6666667,37.3333333 L10.3166667,37.3333333 C8.48333333,37.3333333 7,35.8333333 7,34 L7.01666667,10.6666667 C7.01666667,8.83333333 8.5,7.33333333 10.3333333,7.33333333 L22,7.33333333 Z M20.3333333,19 L29.5,19 L20.3333333,9.83333333 L20.3333333,19 Z" id="path-1"></path>
    </defs>
    <g id="Page-1" stroke="none" stroke-width="1" fill="none" fill-rule="evenodd">
        <g id="Desktop-HD" transform="translate(-733.000000, -1303.000000)">
            <g id="icon/content/file_copy_24px" transform="translate(733.000000, 1303.000000)">
                <mask id="mask-2" fill="white">
                    <use xlink:href="#path-1"></use>
                </mask>
                <g fill-rule="nonzero"></g>
                <g id="↳-Color" mask="url(#mask-2)" fill="#9CC856">
                    <g transform="translate(-3.000000, -1.000000)" id="Rectangle">
                        <rect x="0" y="0" width="40" height="40"></rect>
                    </g>
                </g>
            </g>
        </g>
    </g>
</svg>