<?xml version="1.0" encoding="UTF-8"?>
<svg width="97px" height="63px" viewBox="0 0 97 63" version="1.1" xmlns="http://www.w3.org/2000/svg" xmlns:xlink="http://www.w3.org/1999/xlink">
    <!-- Generator: sketchtool 56.3 (101010) - https://sketch.com -->
    <title>067DEAE2-FE93-4510-97A7-781C5BFF946D</title>
    <desc>Created with sketchtool.</desc>
    <defs>
        <polygon id="path-1" points="0 0 27.8343195 0 27.8343195 62.5444208 0 62.5444208"></polygon>
        <polygon id="path-3" points="0 0.0696227318 22.7218935 0.0696227318 22.7218935 51.2423306 0 51.2423306"></polygon>
        <polygon id="path-5" points="0 0.0696227318 22.7218935 0.0696227318 22.7218935 51.2423306 0 51.2423306"></polygon>
    </defs>
    <g id="Page-1" stroke="none" stroke-width="1" fill="none" fill-rule="evenodd">
        <g id="Solutions" transform="translate(-235.000000, -1548.000000)">
            <g id="Business-Line" transform="translate(130.000000, 886.000000)">
                <g id="Group-7" transform="translate(105.500000, 662.000000)">
                    <g id="Group-3" transform="translate(34.082840, 0.000000)">
                        <mask id="mask-2" fill="white">
                            <use xlink:href="#path-1"></use>
                        </mask>
                        <g id="Clip-2"></g>
                        <path d="M23.6211798,0 L4.08604651,0 C-5.10755814,31.1885184 4.08604651,62.5444208 4.08604651,62.5444208 L9.9053266,62.5444208 L18.3002866,62.5444208 L23.6211798,62.5444208 C23.6211798,62.5444208 33.1007442,31.1885184 23.6211798,0 M21.4887374,42.7155532 C21.4887374,43.2850666 21.1803094,43.7872183 20.7227739,44.0566656 C20.7064333,44.0668719 20.6921354,44.0913671 20.6757948,44.0913671 C20.4490696,44.2546685 20.1876207,44.2771224 19.9057462,44.2709986 C19.8914482,44.2709986 19.8771502,44.2648748 19.8628522,44.2648748 C19.8567245,44.2628335 19.8526394,44.2628335 19.8485542,44.2628335 C19.8342562,44.2628335 19.8199582,44.2607923 19.8056603,44.2607923 C19.0090582,44.1934305 18.3799468,43.5279774 18.3799468,42.7114706 C18.3799468,41.8541385 19.076463,41.1601077 19.9343421,41.1601077 C20.7922213,41.1601077 21.4887374,41.858221 21.4887374,42.7155532 M13.9046774,37.7797696 C14.1068918,37.7797696 14.3009358,37.8165124 14.4786394,37.8879567 C14.8463019,38.0145153 15.1261339,38.2696736 15.2834117,38.6146478 C15.395753,38.8269395 15.4590727,39.0739328 15.4590727,39.3331737 C15.4590727,40.1884646 14.7645991,40.8845367 13.9046774,40.8845367 C13.0467983,40.8845367 12.3502821,40.1884646 12.3502821,39.3331737 C12.3502821,38.4738003 13.0467983,37.7797696 13.9046774,37.7797696 M10.6079705,38.7432476 C11.4658496,38.7432476 12.1623657,39.4372784 12.1623657,40.298693 C12.1623657,41.1560252 11.4658496,41.8520972 10.6079705,41.8520972 C9.74804876,41.8520972 9.05357518,41.1560252 9.05357518,40.298693 C9.05357518,39.4372784 9.74804876,38.7432476 10.6079705,38.7432476 M8.23450487,41.2193044 C9.092384,41.2193044 9.78890015,41.9174178 9.78890015,42.7747499 C9.78890015,43.6341233 9.092384,44.3281541 8.23450487,44.3281541 C7.37458317,44.3281541 6.68010959,43.6341233 6.68010959,42.7747499 C6.68010959,41.9174178 7.37458317,41.2193044 8.23450487,41.2193044 M5.87737984,46.0081168 L5.87737984,46.0081168 L5.87737984,46.0060756 C5.87737984,45.9795391 5.86308185,45.9570851 5.86512442,45.9305487 C5.90393324,45.1099593 6.56776828,44.4526714 7.40113657,44.4526714 C8.24063258,44.4526714 8.81867971,45.1201657 8.98208525,45.9530026 L8.98208525,45.9550439 L8.98208525,45.9632089 C8.98208525,45.9754565 8.95553185,45.993828 8.95553185,46.0081168 C8.95553185,46.0121994 8.92693588,46.0162819 8.92693588,46.0203644 C8.92693588,46.0346533 8.92693588,46.0469009 8.92489331,46.0591485 C8.92489331,46.0713961 8.92489331,46.0877262 8.92285074,46.1020151 L8.92285074,46.1203865 C8.8656588,46.9246457 8.22429202,47.561521 7.40317914,47.561521 C6.54325745,47.561521 5.87737984,46.865449 5.87737984,46.0081168 M6.68010959,49.3251757 C6.68010959,48.4678435 7.37458317,47.7697302 8.23450487,47.7697302 C9.092384,47.7697302 9.78890015,48.4678435 9.78890015,49.3251757 C9.78890015,50.1825078 9.092384,50.8785799 8.23450487,50.8785799 C7.37458317,50.8785799 6.68010959,50.1825078 6.68010959,49.3251757 M10.8592065,53.5036492 C10.462948,53.5036492 10.1034558,53.3546367 9.82770897,53.111726 C9.73170821,53.028034 9.64796286,52.9341357 9.57851551,52.8279899 C9.40489711,52.5789553 9.30481121,52.2727652 9.30481121,51.950245 C9.30481121,51.6624264 9.38242885,51.3950204 9.51928099,51.162316 C9.63570745,50.9520655 9.799113,50.7805991 10.0013274,50.6519992 C10.2484783,50.4886979 10.5426082,50.3947996 10.8592065,50.3947996 C11.7170856,50.3947996 12.4136018,51.0888304 12.4136018,51.950245 C12.4136018,52.8075772 11.7170856,53.5036492 10.8592065,53.5036492 M14.9484303,54.022131 C14.7094497,54.1691023 14.4296177,54.2507529 14.12936,54.2425879 C14.0190613,54.2364641 13.9128477,54.2221752 13.8107192,54.19768 C13.1182882,54.0405024 12.6035607,53.4219985 12.6035607,52.6851012 C12.6035607,51.8257278 13.3000769,51.131697 14.157956,51.131697 C15.0158351,51.131697 15.7123513,51.8257278 15.7123513,52.6851012 C15.7123513,53.2546147 15.4059659,53.7526838 14.9484303,54.022131 M17.4771312,38.5983176 C18.3350103,38.5983176 19.0315265,39.2923484 19.0315265,40.1517218 C19.0315265,41.0090539 18.3350103,41.705126 17.4771312,41.705126 C16.6192521,41.705126 15.9227359,41.0090539 15.9227359,40.1517218 C15.9227359,39.2923484 16.6192521,38.5983176 17.4771312,38.5983176 M17.5813022,53.356678 C17.2933,53.356678 17.0236808,53.2770686 16.7928705,53.1403037 C16.5130385,52.9872087 16.2944835,52.7483804 16.1678442,52.4483142 C16.0779712,52.2523526 16.026907,52.033937 16.026907,51.8032738 C16.026907,51.5032076 16.1106523,51.2276365 16.2577173,50.9888083 C16.3516755,50.8255069 16.4762722,50.688742 16.6253798,50.5764724 C16.8888712,50.3723457 17.22181,50.2498696 17.5813022,50.2498696 C18.4412239,50.2498696 19.1356975,50.9439004 19.1356975,51.8032738 C19.1356975,52.660606 18.4412239,53.356678 17.5813022,53.356678 M20.0814071,50.8785799 C19.8628522,50.8785799 19.6565527,50.8316307 19.4686363,50.7499801 C18.8885466,50.5315645 18.5086287,49.9722573 18.5229267,49.2802678 C18.5331395,48.7025893 18.8211418,48.2412629 19.2745922,47.9983521 C19.5094877,47.8534222 19.7852346,47.7697302 20.0814071,47.7697302 C20.9392862,47.7697302 21.6358024,48.4678435 21.6358024,49.3251757 C21.6358024,50.1825078 20.9392862,50.8785799 20.0814071,50.8785799 M20.8371578,47.6023463 C19.9792787,47.6023463 19.2827625,46.9062743 19.2827625,46.0509834 C19.2827625,45.19161 19.9792787,44.4975792 20.8371578,44.4975792 C21.6970795,44.4975792 22.3915531,45.19161 22.3915531,46.0509834 C22.3915531,46.9062743 21.6970795,47.6023463 20.8371578,47.6023463" id="Fill-1" fill="#5CC4EC" mask="url(#mask-2)"></path>
                    </g>
                    <g id="Group-3-Copy" transform="translate(0.000000, 6.254442)">
                        <mask id="mask-4" fill="white">
                            <use xlink:href="#path-3"></use>
                        </mask>
                        <g id="Clip-2"></g>
                        <path d="M19.2825958,0.0696227318 L3.33554818,0.0696227318 C-4.16943522,25.5875014 3.33554818,51.2423306 3.33554818,51.2423306 L8.0859809,51.2423306 L14.9390095,51.2423306 L19.2825958,51.2423306 C19.2825958,51.2423306 27.0210157,25.5875014 19.2825958,0.0696227318 M17.5418265,35.0187117 C17.5418265,35.4846773 17.2900485,35.8955286 16.9165501,36.1159855 C16.9032109,36.1243361 16.8915391,36.1443776 16.8781998,36.1443776 C16.693118,36.2779878 16.4796904,36.2963592 16.2495887,36.2913489 C16.2379169,36.2913489 16.226245,36.2863385 16.2145732,36.2863385 C16.209571,36.2846684 16.2062362,36.2846684 16.2029014,36.2846684 C16.1912296,36.2846684 16.1795577,36.2829982 16.1678859,36.2829982 C15.5175985,36.227884 15.0040382,35.6834224 15.0040382,35.0153714 C15.0040382,34.3139179 15.5726229,33.7460745 16.2729323,33.7460745 C16.9732418,33.7460745 17.5418265,34.3172581 17.5418265,35.0187117 M11.3507571,30.9803433 C11.51583,30.9803433 11.6742333,31.0104056 11.8192975,31.06886 C12.1194301,31.1724079 12.3478644,31.3811739 12.4762545,31.6634254 C12.5679617,31.8371187 12.6196512,32.0392041 12.6196512,32.2513103 C12.6196512,32.9510938 12.052734,33.5206073 11.3507571,33.5206073 C10.6504476,33.5206073 10.081863,32.9510938 10.081863,32.2513103 C10.081863,31.5481866 10.6504476,30.9803433 11.3507571,30.9803433 M8.65956772,31.7686435 C9.35987721,31.7686435 9.92846183,32.3364868 9.92846183,33.0412807 C9.92846183,33.7427342 9.35987721,34.3122477 8.65956772,34.3122477 C7.95759083,34.3122477 7.39067362,33.7427342 7.39067362,33.0412807 C7.39067362,32.3364868 7.95759083,31.7686435 8.65956772,31.7686435 M6.72204479,33.7945082 C7.42235429,33.7945082 7.9909389,34.3656918 7.9909389,35.0671454 C7.9909389,35.7702691 7.42235429,36.3381124 6.72204479,36.3381124 C6.0200679,36.3381124 5.45315069,35.7702691 5.45315069,35.0671454 C5.45315069,34.3656918 6.0200679,33.7945082 6.72204479,33.7945082 M4.79786109,37.7126274 L4.79786109,37.7126274 L4.79786109,37.7109573 C4.79786109,37.6892456 4.78618927,37.6708742 4.78785667,37.6491626 C4.81953734,36.9777713 5.36144349,36.4399902 6.04174414,36.4399902 C6.727047,36.4399902 7.19892221,36.9861219 7.33231449,37.667534 L7.33231449,37.6692041 L7.33231449,37.6758846 C7.33231449,37.6859054 7.31063825,37.7009365 7.31063825,37.7126274 C7.31063825,37.7159677 7.2872946,37.7193079 7.2872946,37.7226482 C7.2872946,37.7343391 7.2872946,37.7443598 7.28562719,37.7543806 C7.28562719,37.7644014 7.28562719,37.7777624 7.28395979,37.7894533 L7.28395979,37.8044844 C7.23727249,38.4625147 6.71370777,38.9835945 6.04341155,38.9835945 C5.34143465,38.9835945 4.79786109,38.414081 4.79786109,37.7126274 M5.45315069,40.4265847 C5.45315069,39.7251311 6.0200679,39.1539475 6.72204479,39.1539475 C7.42235429,39.1539475 7.9909389,39.7251311 7.9909389,40.4265847 C7.9909389,41.1280382 7.42235429,41.6975517 6.72204479,41.6975517 C6.0200679,41.6975517 5.45315069,41.1280382 5.45315069,40.4265847 M8.86465836,43.8453357 C8.54118207,43.8453357 8.24771904,43.7234164 8.02261956,43.5246712 C7.9442516,43.456196 7.87588805,43.3793702 7.81919633,43.2925235 C7.67746703,43.088768 7.59576425,42.8382488 7.59576425,42.5743687 C7.59576425,42.3388807 7.65912559,42.120094 7.77084163,41.9296994 C7.86588363,41.7576763 7.99927591,41.6173856 8.16434887,41.5121676 C8.3661047,41.3785574 8.60621081,41.3017315 8.86465836,41.3017315 C9.56496785,41.3017315 10.1335525,41.8695749 10.1335525,42.5743687 C10.1335525,43.2758222 9.56496785,43.8453357 8.86465836,43.8453357 M12.2028003,44.2695481 C12.0077141,44.3897973 11.7792798,44.4566024 11.5341714,44.4499219 C11.4441317,44.4449115 11.3574267,44.4332206 11.2740565,44.4131791 C10.7088067,44.2845793 10.288621,43.7785306 10.288621,43.1756146 C10.288621,42.4724909 10.8572056,41.9046475 11.5575151,41.9046475 C12.2578246,41.9046475 12.8264092,42.4724909 12.8264092,43.1756146 C12.8264092,43.6415802 12.5762987,44.0490913 12.2028003,44.2695481 M14.2670459,31.6500644 C14.9673554,31.6500644 15.53594,32.2179078 15.53594,32.9210315 C15.53594,33.6224851 14.9673554,34.1919985 14.2670459,34.1919985 C13.5667364,34.1919985 12.9981518,33.6224851 12.9981518,32.9210315 C12.9981518,32.2179078 13.5667364,31.6500644 14.2670459,31.6500644 M14.3520835,43.7250866 C14.1169796,43.7250866 13.8968823,43.6599516 13.7084657,43.548053 C13.4800314,43.4227935 13.3016192,43.2273885 13.1982402,42.9818798 C13.1248744,42.8215476 13.0831893,42.6428439 13.0831893,42.4541195 C13.0831893,42.2086107 13.1515529,41.9831435 13.271606,41.7877386 C13.3483065,41.6541284 13.4500181,41.5422299 13.5717386,41.4503728 C13.7868336,41.2833601 14.0586204,41.1831524 14.3520835,41.1831524 C15.0540603,41.1831524 15.6209776,41.7509958 15.6209776,42.4541195 C15.6209776,43.1555731 15.0540603,43.7250866 14.3520835,43.7250866 M16.3929854,41.6975517 C16.2145732,41.6975517 16.0461655,41.6591388 15.8927643,41.5923337 C15.4192217,41.41363 15.1090847,40.9560151 15.1207565,40.3898419 C15.1290935,39.9171958 15.3641974,39.5397469 15.734361,39.3410018 C15.9261124,39.2224227 16.1512119,39.1539475 16.3929854,39.1539475 C17.0932949,39.1539475 17.6618795,39.7251311 17.6618795,40.4265847 C17.6618795,41.1280382 17.0932949,41.6975517 16.3929854,41.6975517 M17.0099247,39.016997 C16.3096152,39.016997 15.7410306,38.4474835 15.7410306,37.7477001 C15.7410306,37.0445764 16.3096152,36.476733 17.0099247,36.476733 C17.7119016,36.476733 18.2788188,37.0445764 18.2788188,37.7477001 C18.2788188,38.4474835 17.7119016,39.016997 17.0099247,39.016997" id="Fill-1" fill="#5CC4EC" mask="url(#mask-4)"></path>
                    </g>
                    <g id="Group-3-Copy-2" transform="translate(73.278107, 6.254442)">
                        <mask id="mask-6" fill="white">
                            <use xlink:href="#path-5"></use>
                        </mask>
                        <g id="Clip-2"></g>
                        <path d="M19.2825958,0.0696227318 L3.33554818,0.0696227318 C-4.16943522,25.5875014 3.33554818,51.2423306 3.33554818,51.2423306 L8.0859809,51.2423306 L14.9390095,51.2423306 L19.2825958,51.2423306 C19.2825958,51.2423306 27.0210157,25.5875014 19.2825958,0.0696227318 M17.5418265,35.0187117 C17.5418265,35.4846773 17.2900485,35.8955286 16.9165501,36.1159855 C16.9032109,36.1243361 16.8915391,36.1443776 16.8781998,36.1443776 C16.693118,36.2779878 16.4796904,36.2963592 16.2495887,36.2913489 C16.2379169,36.2913489 16.226245,36.2863385 16.2145732,36.2863385 C16.209571,36.2846684 16.2062362,36.2846684 16.2029014,36.2846684 C16.1912296,36.2846684 16.1795577,36.2829982 16.1678859,36.2829982 C15.5175985,36.227884 15.0040382,35.6834224 15.0040382,35.0153714 C15.0040382,34.3139179 15.5726229,33.7460745 16.2729323,33.7460745 C16.9732418,33.7460745 17.5418265,34.3172581 17.5418265,35.0187117 M11.3507571,30.9803433 C11.51583,30.9803433 11.6742333,31.0104056 11.8192975,31.06886 C12.1194301,31.1724079 12.3478644,31.3811739 12.4762545,31.6634254 C12.5679617,31.8371187 12.6196512,32.0392041 12.6196512,32.2513103 C12.6196512,32.9510938 12.052734,33.5206073 11.3507571,33.5206073 C10.6504476,33.5206073 10.081863,32.9510938 10.081863,32.2513103 C10.081863,31.5481866 10.6504476,30.9803433 11.3507571,30.9803433 M8.65956772,31.7686435 C9.35987721,31.7686435 9.92846183,32.3364868 9.92846183,33.0412807 C9.92846183,33.7427342 9.35987721,34.3122477 8.65956772,34.3122477 C7.95759083,34.3122477 7.39067362,33.7427342 7.39067362,33.0412807 C7.39067362,32.3364868 7.95759083,31.7686435 8.65956772,31.7686435 M6.72204479,33.7945082 C7.42235429,33.7945082 7.9909389,34.3656918 7.9909389,35.0671454 C7.9909389,35.7702691 7.42235429,36.3381124 6.72204479,36.3381124 C6.0200679,36.3381124 5.45315069,35.7702691 5.45315069,35.0671454 C5.45315069,34.3656918 6.0200679,33.7945082 6.72204479,33.7945082 M4.79786109,37.7126274 L4.79786109,37.7126274 L4.79786109,37.7109573 C4.79786109,37.6892456 4.78618927,37.6708742 4.78785667,37.6491626 C4.81953734,36.9777713 5.36144349,36.4399902 6.04174414,36.4399902 C6.727047,36.4399902 7.19892221,36.9861219 7.33231449,37.667534 L7.33231449,37.6692041 L7.33231449,37.6758846 C7.33231449,37.6859054 7.31063825,37.7009365 7.31063825,37.7126274 C7.31063825,37.7159677 7.2872946,37.7193079 7.2872946,37.7226482 C7.2872946,37.7343391 7.2872946,37.7443598 7.28562719,37.7543806 C7.28562719,37.7644014 7.28562719,37.7777624 7.28395979,37.7894533 L7.28395979,37.8044844 C7.23727249,38.4625147 6.71370777,38.9835945 6.04341155,38.9835945 C5.34143465,38.9835945 4.79786109,38.414081 4.79786109,37.7126274 M5.45315069,40.4265847 C5.45315069,39.7251311 6.0200679,39.1539475 6.72204479,39.1539475 C7.42235429,39.1539475 7.9909389,39.7251311 7.9909389,40.4265847 C7.9909389,41.1280382 7.42235429,41.6975517 6.72204479,41.6975517 C6.0200679,41.6975517 5.45315069,41.1280382 5.45315069,40.4265847 M8.86465836,43.8453357 C8.54118207,43.8453357 8.24771904,43.7234164 8.02261956,43.5246712 C7.9442516,43.456196 7.87588805,43.3793702 7.81919633,43.2925235 C7.67746703,43.088768 7.59576425,42.8382488 7.59576425,42.5743687 C7.59576425,42.3388807 7.65912559,42.120094 7.77084163,41.9296994 C7.86588363,41.7576763 7.99927591,41.6173856 8.16434887,41.5121676 C8.3661047,41.3785574 8.60621081,41.3017315 8.86465836,41.3017315 C9.56496785,41.3017315 10.1335525,41.8695749 10.1335525,42.5743687 C10.1335525,43.2758222 9.56496785,43.8453357 8.86465836,43.8453357 M12.2028003,44.2695481 C12.0077141,44.3897973 11.7792798,44.4566024 11.5341714,44.4499219 C11.4441317,44.4449115 11.3574267,44.4332206 11.2740565,44.4131791 C10.7088067,44.2845793 10.288621,43.7785306 10.288621,43.1756146 C10.288621,42.4724909 10.8572056,41.9046475 11.5575151,41.9046475 C12.2578246,41.9046475 12.8264092,42.4724909 12.8264092,43.1756146 C12.8264092,43.6415802 12.5762987,44.0490913 12.2028003,44.2695481 M14.2670459,31.6500644 C14.9673554,31.6500644 15.53594,32.2179078 15.53594,32.9210315 C15.53594,33.6224851 14.9673554,34.1919985 14.2670459,34.1919985 C13.5667364,34.1919985 12.9981518,33.6224851 12.9981518,32.9210315 C12.9981518,32.2179078 13.5667364,31.6500644 14.2670459,31.6500644 M14.3520835,43.7250866 C14.1169796,43.7250866 13.8968823,43.6599516 13.7084657,43.548053 C13.4800314,43.4227935 13.3016192,43.2273885 13.1982402,42.9818798 C13.1248744,42.8215476 13.0831893,42.6428439 13.0831893,42.4541195 C13.0831893,42.2086107 13.1515529,41.9831435 13.271606,41.7877386 C13.3483065,41.6541284 13.4500181,41.5422299 13.5717386,41.4503728 C13.7868336,41.2833601 14.0586204,41.1831524 14.3520835,41.1831524 C15.0540603,41.1831524 15.6209776,41.7509958 15.6209776,42.4541195 C15.6209776,43.1555731 15.0540603,43.7250866 14.3520835,43.7250866 M16.3929854,41.6975517 C16.2145732,41.6975517 16.0461655,41.6591388 15.8927643,41.5923337 C15.4192217,41.41363 15.1090847,40.9560151 15.1207565,40.3898419 C15.1290935,39.9171958 15.3641974,39.5397469 15.734361,39.3410018 C15.9261124,39.2224227 16.1512119,39.1539475 16.3929854,39.1539475 C17.0932949,39.1539475 17.6618795,39.7251311 17.6618795,40.4265847 C17.6618795,41.1280382 17.0932949,41.6975517 16.3929854,41.6975517 M17.0099247,39.016997 C16.3096152,39.016997 15.7410306,38.4474835 15.7410306,37.7477001 C15.7410306,37.0445764 16.3096152,36.476733 17.0099247,36.476733 C17.7119016,36.476733 18.2788188,37.0445764 18.2788188,37.7477001 C18.2788188,38.4474835 17.7119016,39.016997 17.0099247,39.016997" id="Fill-1" fill="#5CC4EC" mask="url(#mask-6)"></path>
                    </g>
                    <path d="M20.9656552,32 L37.2441473,32" id="Line-6" stroke="#5CC4EC" stroke-width="2" stroke-linecap="square" stroke-dasharray="3"></path>
                    <path d="M59.9656552,32 L76.2441473,32" id="Line-6-Copy" stroke="#5CC4EC" stroke-width="2" stroke-linecap="square" stroke-dasharray="3"></path>
                </g>
            </g>
        </g>
    </g>
</svg>