<?xml version="1.0" encoding="UTF-8"?>
<svg width="155px" height="155px" viewBox="0 0 155 155" version="1.1" xmlns="http://www.w3.org/2000/svg" xmlns:xlink="http://www.w3.org/1999/xlink">
    <!-- Generator: sketchtool 56.3 (101010) - https://sketch.com -->
    <title>E6874B73-92D6-4984-BF28-7DBA311E2C4A</title>
    <desc>Created with sketchtool.</desc>
    <defs>
        <polygon id="path-1" points="0.00103333333 0.260666667 153.739333 0.260666667 153.739333 154 0.00103333333 154"></polygon>
    </defs>
    <g id="Page-1" stroke="none" stroke-width="1" fill="none" fill-rule="evenodd">
        <g id="Charging-Basics-Copy" transform="translate(-623.000000, -2980.000000)">
            <g id="Plug-Pop-Up" transform="translate(0.500000, 2725.516103)">
                <g id="Quote-Form">
                    <g id="Group-14" transform="translate(623.000000, 255.000000)">
                        <path d="M45.6953778,25.7738556 C34.5526,25.7738556 25.5178222,34.8086333 25.5178222,45.9548556 C25.5178222,57.0976333 34.5526,66.1324111 45.6953778,66.1324111 C56.8416,66.1324111 65.8763778,57.0976333 65.8763778,45.9548556 C65.8763778,34.8086333 56.8416,25.7738556 45.6953778,25.7738556 M45.6953778,54.3903 C41.0350444,54.3903 37.2599333,50.6117444 37.2599333,45.9548556 C37.2599333,41.2945222 41.0350444,37.5159667 45.6953778,37.5159667 C50.3557111,37.5159667 54.1308222,41.2945222 54.1308222,45.9548556 C54.1308222,50.6117444 50.3557111,54.3903 45.6953778,54.3903" id="Fill-1" fill="#27BBE9"></path>
                        <path d="M108.046711,25.7738556 C96.9039333,25.7738556 87.8691556,34.8086333 87.8691556,45.9548556 C87.8691556,57.0976333 96.9039333,66.1324111 108.046711,66.1324111 C119.192933,66.1324111 128.227711,57.0976333 128.227711,45.9548556 C128.227711,34.8086333 119.192933,25.7738556 108.046711,25.7738556 M108.046711,54.3903 C103.386378,54.3903 99.6112667,50.6117444 99.6112667,45.9548556 C99.6112667,41.2945222 103.386378,37.5159667 108.046711,37.5159667 C112.707044,37.5159667 116.482156,41.2945222 116.482156,45.9548556 C116.482156,50.6117444 112.707044,54.3903 108.046711,54.3903" id="Fill-3" fill="#27BBE9"></path>
                        <path d="M76.8710444,97.1134667 C65.7248222,97.1134667 56.6900444,106.148244 56.6900444,117.294467 C56.6900444,128.437244 65.7248222,137.472022 76.8710444,137.472022 C88.0172667,137.472022 97.0520444,128.437244 97.0520444,117.294467 C97.0520444,106.148244 88.0172667,97.1134667 76.8710444,97.1134667 M76.8710444,125.729911 C72.2107111,125.729911 68.4356,121.951356 68.4356,117.294467 C68.4356,112.634133 72.2107111,108.855578 76.8710444,108.855578 C81.5313778,108.855578 85.3064889,112.634133 85.3064889,117.294467 C85.3064889,121.951356 81.5313778,125.729911 76.8710444,125.729911" id="Fill-5" fill="#27BBE9"></path>
                        <path d="M44.7795,95.8142222 C44.7795,102.003889 39.7609444,107.019 33.5747222,107.019 C27.3850556,107.019 22.3699444,102.003889 22.3699444,95.8142222 C22.3699444,89.6245556 27.3850556,84.6094444 33.5747222,84.6094444 C39.7643889,84.6094444 44.7795,89.6245556 44.7795,95.8142222" id="Fill-7" fill="#27BBE9"></path>
                        <path d="M131.373867,95.8142222 C131.373867,102.003889 126.355311,107.019 120.169089,107.019 C113.979422,107.019 108.964311,102.003889 108.964311,95.8142222 C108.964311,89.6245556 113.979422,84.6094444 120.169089,84.6094444 C126.358756,84.6094444 131.373867,89.6245556 131.373867,95.8142222" id="Fill-9" fill="#27BBE9"></path>
                        <g id="Group-13" transform="translate(0.000000, 0.185156)">
                            <mask id="mask-2" fill="white">
                                <use xlink:href="#path-1"></use>
                            </mask>
                            <g id="Clip-12"></g>
                            <path d="M76.8707,154 C34.4833667,154 0.00103333333,119.517667 0.00103333333,77.1303333 C0.00103333333,34.743 34.4833667,0.260666667 76.8707,0.260666667 C119.258033,0.260666667 153.740367,34.743 153.740367,77.1303333 C153.740367,119.517667 119.258033,154 76.8707,154 M76.8707,6.55366667 C37.9553667,6.55366667 6.29747778,38.215 6.29747778,77.1303333 C6.29747778,116.045667 37.9553667,147.703556 76.8707,147.703556 C115.786033,147.703556 147.443922,116.045667 147.443922,77.1303333 C147.443922,38.215 115.786033,6.55366667 76.8707,6.55366667" id="Fill-11" fill="#27BBE9" mask="url(#mask-2)"></path>
                        </g>
                    </g>
                </g>
            </g>
        </g>
    </g>
</svg>