<?xml version="1.0" encoding="UTF-8"?>
<svg width="253px" height="137px" viewBox="0 0 253 137" version="1.1" xmlns="http://www.w3.org/2000/svg" xmlns:xlink="http://www.w3.org/1999/xlink">
    <!-- Generator: sketchtool 56.3 (101010) - https://sketch.com -->
    <title>AF6B228B-4CDB-48AC-81EC-A3DE9A90681C</title>
    <desc>Created with sketchtool.</desc>
    <defs>
        <polygon id="path-1" points="0 0.18406193 128.666592 0.18406193 128.666592 135.980795 0 135.980795"></polygon>
        <polygon id="path-3" points="0.310215548 0.0911872792 69.32647 0.0911872792 69.32647 135.886926 0.310215548 135.886926"></polygon>
    </defs>
    <g id="Page-1" stroke="none" stroke-width="1" fill="none" fill-rule="evenodd">
        <g id="Charging-Basics" transform="translate(-594.000000, -996.000000)">
            <g id="Group-17-Copy" transform="translate(594.000000, 996.000000)">
                <g id="Group-3">
                    <mask id="mask-2" fill="white">
                        <use xlink:href="#path-1"></use>
                    </mask>
                    <g id="Clip-2"></g>
                    <path d="M126.637228,31.9200177 C126.507599,31.7367491 126.36456,31.5624205 126.199171,31.3970318 L97.1935707,1.68964664 C95.2714859,-0.286077739 92.097811,-0.321837456 90.1176166,1.60918728 C88.1508322,3.53574205 88.1106025,6.704947 90.0371572,8.68067138 L106.607316,25.6486572 C106.549207,25.9794346 106.517917,26.3191519 106.517917,26.6633392 L106.517917,43.4212367 C106.517917,45.1377032 107.237581,46.7871201 108.475761,47.9671908 L116.575337,55.6108304 L116.575337,98.0576148 C116.579807,99.1840459 116.459118,100.332827 116.22221,101.307279 C115.855673,102.795777 115.283518,103.74788 114.608553,104.328975 C114.255426,104.632933 113.844189,104.887721 113.178164,105.115689 C112.525549,105.339187 111.604737,105.522456 110.303977,105.522456 C108.61433,105.517986 107.465549,105.205088 106.584966,104.789382 C105.293147,104.176996 104.457263,103.265124 103.795708,102.044823 C103.138624,100.842403 102.825726,99.3270848 102.843606,98.2542933 L102.843606,70.7818905 C102.848076,65.9677385 101.466857,61.7168021 99.4464329,58.3509187 C96.4023869,53.2685689 92.1514505,50.094894 88.7498074,48.0878799 C87.2344894,47.1938869 85.8666802,46.5368021 84.7849488,46.0629859 L84.7849488,21.50053 C84.7804788,13.2355654 78.0889417,6.54402827 69.828447,6.5395583 L24.7488534,6.5395583 C16.4838887,6.54402827 9.78788163,13.2355654 9.7789417,21.50053 L9.7789417,122.789929 L-0.0013409894,122.789929 L-0.0013409894,135.980795 L94.5741714,135.980795 L94.5741714,122.789929 L84.7849488,122.789929 L84.7849488,59.9422261 C84.9503375,60.0673852 85.1201961,60.1925442 85.2766449,60.3221731 C86.7964329,61.5335336 88.1821219,63.0130919 89.1565742,64.6982686 C90.1220866,66.4013251 90.7344717,68.2831802 90.7478816,70.7818905 L90.7478816,98.2542933 C90.7478816,100.279187 91.0607792,102.384541 91.7580936,104.516714 C92.7995954,107.690389 94.7172102,110.975813 97.8864152,113.514753 C101.001981,116.044753 105.315496,117.61371 110.178818,117.61371 C110.227988,117.61371 110.263747,117.61371 110.303977,117.60924 C113.531292,117.61818 116.512758,116.996855 119.065108,115.745265 C122.949507,113.88129 125.551027,110.604806 126.896486,107.390901 C128.282175,104.154647 128.657652,100.927332 128.666592,98.0576148 L128.666592,36.4212721 C128.666592,34.6332862 127.879878,33.0285689 126.637228,31.9200177 L126.637228,31.9200177 Z M73.744136,60.9390283 C73.744136,63.0980212 71.98297,64.8502473 69.828447,64.8502473 L24.7533233,64.8502473 C22.5898604,64.8502473 20.8331643,63.0980212 20.8331643,60.9390283 L20.8331643,21.50053 C20.8331643,19.3460071 22.5898604,17.584841 24.7533233,17.584841 L69.828447,17.584841 C71.98297,17.584841 73.744136,19.3460071 73.744136,21.50053 L73.744136,60.9390283 Z" id="Fill-1" fill="#27BBE9" mask="url(#mask-2)"></path>
                </g>
                <path d="M36.3995651,32.1837456 L30.6499049,32.1837456 C30.0175319,32.1837456 29.5017668,32.6896247 29.5017668,33.3108799 L29.5017668,42.6785194 C29.5017668,43.3042121 30.0175319,43.8056537 30.6499049,43.8056537 L36.3995651,43.8056537 C37.031938,43.8056537 37.5477032,43.3042121 37.5477032,42.6785194 L37.5477032,33.3108799 C37.5477032,32.6896247 37.031938,32.1837456 36.3995651,32.1837456" id="Fill-4" fill="#27BBE9"></path>
                <path d="M49.8004893,32.1837456 L44.0553139,32.1837456 C43.4184561,32.1837456 42.9116608,32.6896247 42.9116608,33.3108799 L42.9116608,42.6785194 C42.9116608,43.3042121 43.4184561,43.8056537 44.0553139,43.8056537 L49.8004893,43.8056537 C50.4373471,43.8056537 50.9575972,43.3042121 50.9575972,42.6785194 L50.9575972,33.3108799 C50.9575972,32.6896247 50.4373471,32.1837456 49.8004893,32.1837456" id="Fill-6" fill="#27BBE9"></path>
                <path d="M63.2283229,32.1837456 L57.4696929,32.1837456 C56.8373199,32.1837456 56.3215548,32.6896247 56.3215548,33.3108799 L56.3215548,42.6785194 C56.3215548,43.3042121 56.8373199,43.8056537 57.4696929,43.8056537 L63.2283229,43.8056537 C63.8562109,43.8056537 64.3674912,43.3042121 64.3674912,42.6785194 L64.3674912,33.3108799 C64.3674912,32.6896247 63.8562109,32.1837456 63.2283229,32.1837456" id="Fill-8" fill="#27BBE9"></path>
                <g id="Group-12" transform="translate(183.268551, 0.893993)">
                    <mask id="mask-4" fill="white">
                        <use xlink:href="#path-3"></use>
                    </mask>
                    <g id="Clip-11"></g>
                    <path d="M68.6470353,43.9147208 C68.2179187,43.4945442 67.6144735,43.2308163 67.0065583,43.2308163 L60.7664876,43.2308163 L60.7664876,6.86318375 C60.7664876,3.12182332 57.7894912,0.0911872792 54.13753,0.0911872792 C50.4632191,0.0911872792 47.4996325,3.12182332 47.4996325,6.86318375 L47.4996325,43.2308163 L22.137053,43.2308163 L22.137053,6.86318375 C22.137053,3.12182332 19.1734664,0.0911872792 15.5080954,0.0911872792 C11.8382544,0.0911872792 8.86125795,3.12182332 8.86125795,6.86318375 L8.86125795,43.2308163 L2.63459717,43.2308163 C2.01774205,43.2308163 1.42323675,43.4945442 0.994120141,43.9147208 C0.560533569,44.3572473 0.310215548,44.9696325 0.310215548,45.6043675 L0.310215548,94.8946678 C0.310215548,95.507053 0.547123675,96.1239081 0.994120141,96.5664346 C1.42770671,97.0044912 2.01327208,97.2682191 2.63459717,97.2682191 L29.1101979,97.2682191 C29.1101979,112.157671 17.2111519,124.271276 2.58989753,124.271276 L2.58989753,135.888714 C23.5048622,135.888714 40.5220177,118.558661 40.5220177,97.2682191 L67.0065583,97.2682191 C67.6144735,97.2682191 68.2179187,97.0044912 68.6470353,96.5664346 C69.0761519,96.1239081 69.32647,95.507053 69.32647,94.8946678 L69.32647,45.6043675 C69.32647,44.9696325 69.0761519,44.3572473 68.6470353,43.9147208" id="Fill-10" fill="#27BBE9" mask="url(#mask-4)"></path>
                </g>
            </g>
        </g>
    </g>
</svg>