<?xml version="1.0" encoding="UTF-8"?>
<svg width="257px" height="51px" viewBox="0 0 257 51" version="1.1" xmlns="http://www.w3.org/2000/svg" xmlns:xlink="http://www.w3.org/1999/xlink">
    <!-- Generator: sketchtool 56.2 (101010) - https://sketch.com -->
    <title>A3875B6D-B6DA-406A-8C82-2EB4F5FCBF42</title>
    <desc>Created with sketchtool.</desc>
    <defs>
        <polygon id="path-1" points="0.167503448 0.279724138 15.552331 0.279724138 15.552331 15.6644414 0.167503448 15.6644414"></polygon>
        <polygon id="path-3" points="0 0.0637241379 15.9342857 0.0637241379 15.9342857 15.4482759 0 15.4482759"></polygon>
        <polygon id="path-5" points="0.167503448 0.0637241379 15.552331 0.0637241379 15.552331 15.4482759 0.167503448 15.4482759"></polygon>
        <polygon id="path-7" points="0 50 257 50 257 0 0 0"></polygon>
    </defs>
    <g id="Page-1" stroke="none" stroke-width="1" fill="none" fill-rule="evenodd">
        <g id="Desktop-HD" transform="translate(-592.000000, -2706.000000)">
            <g id="Group-36" transform="translate(592.000000, 2706.000000)">
                <g id="Group-3" transform="translate(17.000000, 0.000000)">
                    <mask id="mask-2" fill="white">
                        <use xlink:href="#path-1"></use>
                    </mask>
                    <g id="Clip-2"></g>
                    <path d="M2.35012414,15.6644414 L15.552331,15.6644414 C15.552331,7.16788966 8.6646069,0.279613793 0.167503448,0.279613793 L0.167503448,13.4818207 C1.24943448,13.7345103 2.09743448,14.5830621 2.35012414,15.6644414" id="Fill-1" fill="#FEFEFE" mask="url(#mask-2)"></path>
                </g>
                <path d="M16,13.7301058 L16,0 C7.16370809,0 0,7.1631343 0,16 L13.7301058,16 C13.9928994,14.8748072 14.8748072,13.9928994 16,13.7301058" id="Fill-4" fill="#FEFEFE"></path>
                <g id="Group-8" transform="translate(0.000000, 35.000000)">
                    <mask id="mask-4" fill="white">
                        <use xlink:href="#path-3"></use>
                    </mask>
                    <g id="Clip-7"></g>
                    <path d="M13.6737143,0.0637241379 L0,0.0637241379 C0,8.55972414 7.13428571,15.4485517 15.9342857,15.4485517 L15.9342857,2.2457931 C14.8137143,1.99310345 13.9354286,1.14565517 13.6737143,0.0637241379" id="Fill-6" fill="#FEFEFE" mask="url(#mask-4)"></path>
                </g>
                <g id="Group-11" transform="translate(17.000000, 35.000000)">
                    <mask id="mask-6" fill="white">
                        <use xlink:href="#path-5"></use>
                    </mask>
                    <g id="Clip-10"></g>
                    <path d="M2.35012414,0.0637241379 C2.09743448,1.14510345 1.24943448,1.99310345 0.167503448,2.2457931 L0.167503448,15.4485517 C8.6646069,15.4485517 15.552331,8.56027586 15.552331,0.0637241379 L2.35012414,0.0637241379 Z" id="Fill-9" fill="#FEFEFE" mask="url(#mask-6)"></path>
                </g>
                <path d="M19.2698942,33 L33,33 C33,25.3406801 27.0016496,19.0249764 19.2165322,18 C18.907262,18.9869137 18.0666667,19.7525194 17,19.9885087 L17,30.8494526 C18.1251928,31.098492 19.0071006,31.934242 19.2698942,33" id="Fill-12" fill="#FEFEFE"></path>
                <path d="M16,31.0115634 L16,20.1510132 C14.8748072,19.9019828 13.9928994,19.0668068 13.7301058,18 L0,18 C0,25.6590423 5.99892415,31.974517 13.7834678,33 C14.0933118,32.0131221 14.9339071,31.2480879 16,31.0115634" id="Fill-14" fill="#FEFEFE"></path>
                <path d="M49.5714286,32.4524948 C48.4805195,32.0876776 47.6233766,31.6144768 47,31.0334509 L47.8237477,29.2903733 C48.4170686,29.8267048 49.1779221,30.2624742 50.1057514,30.5976815 C51.0330241,30.9328887 51.987013,31.1004923 52.9666048,31.1004923 C54.257885,31.1004923 55.222449,30.8809316 55.8608534,30.4412514 C56.4987013,30.00213 56.8181818,29.4171933 56.8181818,28.6870002 C56.8181818,28.1506687 56.6439703,27.7154579 56.2949907,27.379692 C55.9460111,27.0444848 55.5157699,26.7874926 55.0037106,26.6087154 C54.4916512,26.4299382 53.7680891,26.2288139 52.8330241,26.0053424 C51.6602968,25.7226509 50.7141002,25.4394008 49.9944341,25.1561507 C49.2742115,24.8734593 48.6586271,24.4376899 48.1465677,23.8494012 C47.6345083,23.2605538 47.3784787,22.46723 47.3784787,21.4694298 C47.3784787,20.6353225 47.5972171,19.8822235 48.0352505,19.2123678 C48.4727273,18.5419533 49.1372913,18.0056217 50.0278293,17.6028143 C50.9183673,17.2011243 52.0237477,17 53.3450835,17 C54.2656772,17 55.1706865,17.1189986 56.0612245,17.3569957 C56.9517625,17.5961102 57.7159555,17.9385803 58.3543599,18.3855232 L57.619666,20.1732952 C56.9667904,19.7559621 56.2688312,19.43975 55.5269017,19.2235413 C54.7849722,19.0078913 54.0575139,18.8995077 53.3450835,18.8995077 C52.0833024,18.8995077 51.1371058,19.130242 50.5064935,19.5917106 C49.8753247,20.0542966 49.5602968,20.6504068 49.5602968,21.3800412 C49.5602968,21.9163728 49.7384045,22.3515835 50.0946197,22.6873494 C50.4508349,23.021998 50.8927644,23.2829009 51.419295,23.468941 C51.9463822,23.6555396 52.6621521,23.8527532 53.567718,24.0611404 C54.7404453,24.3443905 55.6827458,24.6276406 56.3951763,24.9103321 C57.1076067,25.1935822 57.7198516,25.6254408 58.2319109,26.2064667 C58.7439703,26.7874926 59,27.5696428 59,28.553476 C59,29.372499 58.7773655,30.1211285 58.3320965,30.7988058 C57.8868275,31.4770418 57.2116883,32.0133734 56.3061224,32.4078006 C55.4005566,32.8027864 54.287384,33 52.9666048,33 C51.7938776,33 50.6623377,32.8178707 49.5714286,32.4524948" id="Fill-16" fill="#FEFEFE"></path>
                <polygon id="Fill-18" fill="#FEFEFE" points="87 17 81.7123049 33 79.3393677 33 75.0228819 20.2228571 70.7063961 33 68.2882601 33 63 17 65.3277384 17 69.5990254 30.0051429 74.0511076 17 76.1302526 17 80.4919372 30.0737143 84.8536218 17"></polygon>
                <path d="M100.269371,27.1712204 L96.9779299,19.3315118 L93.6864889,27.1712204 L100.269371,27.1712204 Z M101.032288,28.9998571 L92.924117,28.9998571 L91.2451551,33 L89,33 L95.9098464,17 L98.067811,17 L105,33 L102.710705,33 L101.032288,28.9998571 Z" id="Fill-20" fill="#FEFEFE"></path>
                <polygon id="Fill-22" fill="#FEFEFE" points="114.633588 27.4685714 114.633588 33 112.366412 33 112.366412 27.4228571 106 17 108.450382 17 113.580153 25.4337143 118.732824 17 121 17"></polygon>
                <polygon id="Fill-24" fill="#FEFEFE" points="148.876404 33 148.853933 19.3091429 142.269101 30.8742857 141.707303 30.8742857 135.123596 19.3548571 135.123596 33 134 33 134 17 134.96573 17 142 29.3657143 149.033146 17 149.977528 17 150 33"></polygon>
                <path d="M167.494505,31.0393676 C168.534615,30.4387831 169.354945,29.6083313 169.955495,28.5491391 C170.556593,27.4899468 170.857143,26.30737 170.857143,24.9997183 C170.857143,23.69263 170.556593,22.5094898 169.955495,21.4508609 C169.354945,20.3916687 168.534615,19.5612169 167.494505,18.9606324 C166.453846,18.3600479 165.289011,18.0591922 164,18.0591922 C162.71044,18.0591922 161.541758,18.3600479 160.494505,18.9606324 C159.446703,19.5612169 158.622527,20.3916687 158.021978,21.4508609 C157.420879,22.5094898 157.120879,23.69263 157.120879,24.9997183 C157.120879,26.30737 157.420879,27.4899468 158.021978,28.5491391 C158.622527,29.6083313 159.446703,30.4387831 160.494505,31.0393676 C161.541758,31.6405155 162.71044,31.9413712 164,31.9413712 C165.289011,31.9413712 166.453846,31.6405155 167.494505,31.0393676 M159.912088,31.9520758 C158.695604,31.2534596 157.73956,30.2962428 157.043407,29.0792986 C156.347802,27.8617909 156,26.5023064 156,24.9997183 C156,23.4976936 156.347802,22.1376457 157.043407,20.9212648 C157.73956,19.7043206 158.695604,18.7465404 159.912088,18.0479242 C161.128022,17.3493081 162.490659,17 164,17 C165.508791,17 166.871429,17.3453643 168.087912,18.0366562 C169.303846,18.7273848 170.25989,19.6817846 170.956044,20.8987288 C171.651648,22.1151097 172,23.4824818 172,24.9997183 C172,26.5175182 171.651648,27.8843269 170.956044,29.1018346 C170.25989,30.3187788 169.303846,31.2726152 168.087912,31.9639072 C166.871429,32.6546357 165.508791,33 164,33 C162.490659,33 161.128022,32.6506919 159.912088,31.9520758" id="Fill-26" fill="#FEFEFE"></path>
                <path d="M188.639474,31.1828571 C189.437719,30.6422857 189.836842,29.808 189.836842,28.68 C189.836842,27.552 189.437719,26.7217143 188.639474,26.1885714 C187.841228,25.6548571 186.666667,25.388 185.115789,25.388 L179.163158,25.388 L179.163158,31.9942857 L185.115789,31.9942857 C186.666667,31.9942857 187.841228,31.7234286 188.639474,31.1828571 L188.639474,31.1828571 Z M179.163158,18.0057143 L179.163158,24.3828571 L184.614035,24.3828571 C186.013246,24.3828571 187.088596,24.1125714 187.841228,23.5714286 C188.59386,23.0302857 188.970175,22.2342857 188.970175,21.1828571 C188.970175,20.1468571 188.59386,19.3582857 187.841228,18.8171429 C187.088596,18.2765714 186.013246,18.0057143 184.614035,18.0057143 L179.163158,18.0057143 Z M190.099123,26.0971429 C190.699518,26.7828571 191,27.6737143 191,28.7708571 C191,30.1274286 190.505658,31.1708571 189.517544,31.9028571 C188.52943,32.6342857 187.061798,33 185.115789,33 L178,33 L178,17 L184.659649,17 C186.392982,17 187.742018,17.3542857 188.707895,18.0628571 C189.673202,18.7714286 190.15614,19.7811429 190.15614,21.0914286 C190.15614,22.0051429 189.916667,22.7748571 189.437719,23.4 C188.958772,24.0251429 188.308772,24.4742857 187.487149,24.748 C188.6275,24.9617143 189.498158,25.4108571 190.099123,26.0971429 L190.099123,26.0971429 Z" id="Fill-28" fill="#FEFEFE"></path>
                <mask id="mask-8" fill="white">
                    <use xlink:href="#path-7"></use>
                </mask>
                <g id="Clip-31"></g>
                <polygon id="Fill-30" fill="#FEFEFE" mask="url(#mask-8)" points="198 33 199 33 199 17 198 17"></polygon>
                <polygon id="Fill-32" fill="#FEFEFE" mask="url(#mask-8)" points="207 17 208.123348 17 208.123348 31.9485714 217 31.9485714 217 33 207 33"></polygon>
                <polygon id="Fill-33" fill="#FEFEFE" mask="url(#mask-8)" points="222 33 223 33 223 17 222 17"></polygon>
                <polygon id="Fill-34" fill="#FEFEFE" mask="url(#mask-8)" points="233.448649 18.0514286 228 18.0514286 228 17 240 17 240 18.0514286 234.551351 18.0514286 234.551351 33 233.448649 33"></polygon>
                <polygon id="Fill-35" fill="#FEFEFE" mask="url(#mask-8)" points="250.580227 27.4914286 250.580227 33 249.419773 33 249.419773 27.4914286 243 17 244.274849 17 250.033863 26.4171429 255.793447 17 257 17"></polygon>
            </g>
        </g>
    </g>
</svg>