<?xml version="1.0" encoding="UTF-8"?>
<svg width="171px" height="148px" viewBox="0 0 171 148" version="1.1" xmlns="http://www.w3.org/2000/svg" xmlns:xlink="http://www.w3.org/1999/xlink">
    <!-- Generator: sketchtool 56.3 (101010) - https://sketch.com -->
    <title>6BA0D4FA-46DF-4E47-A69A-6D8080E68C97</title>
    <desc>Created with sketchtool.</desc>
    <defs>
        <polygon id="path-1" points="0.00114666667 0.256948718 170.601067 0.256948718 170.601067 148 0.00114666667 148"></polygon>
    </defs>
    <g id="Page-1" stroke="none" stroke-width="1" fill="none" fill-rule="evenodd">
        <g id="Charging-Basics-Copy" transform="translate(-1116.000000, -3056.000000)">
            <g id="Plug-Types" transform="translate(130.000000, 2836.000000)">
                <g id="Group-5" transform="translate(480.000000, 101.000000)">
                    <g id="Group-18" transform="translate(506.000000, 119.000000)">
                        <path d="M85.5,50 C75.2832952,50 67,58.2841558 67,68.5019221 C67,78.7196883 75.2832952,87 85.5,87 C95.7167048,87 104,78.7196883 104,68.5019221 C104,58.2841558 95.7167048,50 85.5,50 M85.5,76.2363636 C81.2295865,76.2363636 77.7663619,72.7727792 77.7663619,68.5019221 C77.7663619,64.2272208 81.2295865,60.7674805 85.5,60.7674805 C89.7704135,60.7674805 93.2336381,64.2272208 93.2336381,68.5019221 C93.2336381,72.7727792 89.7704135,76.2363636 85.5,76.2363636" id="Fill-1" fill="#27BBE9"></path>
                        <path d="M35.4980779,50 C25.2803117,50 17,58.2841558 17,68.5019221 C17,78.7196883 25.2803117,87 35.4980779,87 C45.7158442,87 54,78.7196883 54,68.5019221 C54,58.2841558 45.7158442,50 35.4980779,50 M35.4980779,76.2363636 C31.2272208,76.2363636 27.7636364,72.7727792 27.7636364,68.5019221 C27.7636364,64.2272208 31.2272208,60.7674805 35.4980779,60.7674805 C39.7689351,60.7674805 43.2325195,64.2272208 43.2325195,68.5019221 C43.2325195,72.7727792 39.7689351,76.2363636 35.4980779,76.2363636" id="Fill-3" fill="#27BBE9"></path>
                        <path d="M60.5,87 C50.2832952,87 42,95.2841558 42,105.501922 C42,115.719688 50.2832952,124 60.5,124 C70.7167048,124 79,115.719688 79,105.501922 C79,95.2841558 70.7167048,87 60.5,87 M60.5,113.236364 C56.2295865,113.236364 52.7663619,109.772779 52.7663619,105.501922 C52.7663619,101.231065 56.2295865,97.7674805 60.5,97.7674805 C64.7704135,97.7674805 68.2336381,101.231065 68.2336381,105.501922 C68.2336381,109.772779 64.7704135,113.236364 60.5,113.236364" id="Fill-5" fill="#27BBE9"></path>
                        <path d="M135.5,50 C125.283295,50 117,58.2841558 117,68.5019221 C117,78.7196883 125.283295,87 135.5,87 C145.716705,87 154,78.7196883 154,68.5019221 C154,58.2841558 145.716705,50 135.5,50 M135.5,76.2363636 C131.229587,76.2363636 127.766362,72.7727792 127.766362,68.5019221 C127.766362,64.2272208 131.229587,60.7674805 135.5,60.7674805 C139.770413,60.7674805 143.233638,64.2272208 143.233638,68.5019221 C143.233638,72.7727792 139.770413,76.2363636 135.5,76.2363636" id="Fill-7" fill="#27BBE9"></path>
                        <path d="M110.5,87 C100.283295,87 92,95.2841558 92,105.501922 C92,115.719688 100.283295,124 110.5,124 C120.716705,124 129,115.719688 129,105.501922 C129,95.2841558 120.716705,87 110.5,87 M110.5,113.236364 C106.229587,113.236364 102.766362,109.772779 102.766362,105.501922 C102.766362,101.231065 106.229587,97.7674805 110.5,97.7674805 C114.770413,97.7674805 118.233638,101.231065 118.233638,105.501922 C118.233638,109.772779 114.770413,113.236364 110.5,113.236364" id="Fill-9" fill="#27BBE9"></path>
                        <path d="M73,35.5 C73,42.4051645 67.4051645,48 60.5,48 C53.5948355,48 48,42.4051645 48,35.5 C48,28.5948355 53.5948355,23 60.5,23 C67.4051645,23 73,28.5948355 73,35.5" id="Fill-11" fill="#27BBE9"></path>
                        <path d="M122,35.5 C122,42.4051645 116.405164,48 109.5,48 C102.594836,48 97,42.4051645 97,35.5 C97,28.5948355 102.594836,23 109.5,23 C116.405164,23 122,28.5948355 122,35.5" id="Fill-13" fill="#27BBE9"></path>
                        <g id="Group-17">
                            <mask id="mask-2" fill="white">
                                <use xlink:href="#path-1"></use>
                            </mask>
                            <g id="Clip-16"></g>
                            <path d="M85.30168,148 C38.2654133,148 0.00114666667,109.752846 0.00114666667,62.7376154 C0.00114666667,39.3178718 9.32354667,17.476 26.2559911,1.23117949 L27.2727022,0.256948718 L143.330658,0.256948718 L144.343547,1.23117949 C161.275991,17.476 170.602213,39.3178718 170.602213,62.7376154 C170.602213,109.752846 132.337947,148 85.30168,148 L85.30168,148 Z M30.0973244,7.24084615 C15.1830133,22.0491538 6.98816889,41.7018718 6.98816889,62.7376154 C6.98816889,105.901769 42.1182133,141.016103 85.30168,141.016103 C128.485147,141.016103 163.615191,105.901769 163.615191,62.7376154 C163.615191,41.7018718 155.416524,22.0491538 140.502213,7.24084615 L30.0973244,7.24084615 Z" id="Fill-15" fill="#27BBE9" mask="url(#mask-2)"></path>
                        </g>
                    </g>
                </g>
            </g>
        </g>
    </g>
</svg>