<?xml version="1.0" encoding="UTF-8"?>
<svg width="120px" height="149px" viewBox="0 0 120 149" version="1.1" xmlns="http://www.w3.org/2000/svg" xmlns:xlink="http://www.w3.org/1999/xlink">
    <!-- Generator: sketchtool 56.3 (101010) - https://sketch.com -->
    <title>A34E4BB7-FCA0-4C10-96B9-B0AB773FFF99</title>
    <desc>Created with sketchtool.</desc>
    <defs>
        <polygon id="path-1" points="0 0.195355556 119.151135 0.195355556 119.151135 149 0 149"></polygon>
    </defs>
    <g id="Page-1" stroke="none" stroke-width="1" fill="none" fill-rule="evenodd">
        <g id="Charging-Basics-Copy" transform="translate(-900.000000, -3056.000000)">
            <g id="Plug-Types" transform="translate(130.000000, 2836.000000)">
                <g id="Group-5" transform="translate(480.000000, 101.000000)">
                    <g id="Group-18-Copy" transform="translate(290.000000, 119.000000)">
                        <path d="M44,17 C38.4787517,17 34,21.4754316 34,27 C34,32.5212483 38.4787517,37 44,37 C49.5212483,37 54,32.5212483 54,27 C54,21.4754316 49.5212483,17 44,17 M44,31.1799469 C41.6925631,31.1799469 39.8200531,29.3074369 39.8200531,27 C39.8200531,24.689243 41.6925631,22.8200531 44,22.8200531 C46.3074369,22.8200531 48.1799469,24.689243 48.1799469,27 C48.1799469,29.3074369 46.3074369,31.1799469 44,31.1799469" id="Fill-1" fill="#27BBE9"></path>
                        <path d="M75,17 C69.4787517,17 65,21.4754316 65,27 C65,32.5212483 69.4787517,37 75,37 C80.5212483,37 85,32.5212483 85,27 C85,21.4754316 80.5212483,17 75,17 M75,31.1799469 C72.6925631,31.1799469 70.8200531,29.3074369 70.8200531,27 C70.8200531,24.689243 72.6925631,22.8200531 75,22.8200531 C77.3074369,22.8200531 79.1799469,24.689243 79.1799469,27 C79.1799469,29.3074369 77.3074369,31.1799469 75,31.1799469" id="Fill-3" fill="#27BBE9"></path>
                        <path d="M60,52 C54.4787517,52 50,56.4787517 50,62 C50,67.5212483 54.4787517,72 60,72 C65.5212483,72 70,67.5212483 70,62 C70,56.4787517 65.5212483,52 60,52 M60,66.1799469 C57.6925631,66.1799469 55.8200531,64.3074369 55.8200531,62 C55.8200531,59.6925631 57.6925631,57.8200531 60,57.8200531 C62.310757,57.8200531 64.1799469,59.6925631 64.1799469,62 C64.1799469,64.3074369 62.310757,66.1799469 60,66.1799469" id="Fill-5" fill="#27BBE9"></path>
                        <path d="M44,51.5 C44,54.5394737 41.5369208,57 38.5016442,57 C35.4630792,57 33,54.5394737 33,51.5 C33,48.4605263 35.4630792,46 38.5016442,46 C41.5369208,46 44,48.4605263 44,51.5" id="Fill-7" fill="#27BBE9"></path>
                        <path d="M86,51.5 C86,54.5394737 83.5369208,57 80.5016442,57 C77.4630792,57 75,54.5394737 75,51.5 C75,48.4605263 77.4630792,46 80.5016442,46 C83.5369208,46 86,48.4605263 86,51.5" id="Fill-9" fill="#27BBE9"></path>
                        <path d="M33.5,98 C23.2810777,98 15,106.284368 15,116.5 C15,126.718922 23.2810777,135 33.5,135 C43.7189223,135 52,126.718922 52,116.5 C52,106.284368 43.7189223,98 33.5,98 M33.5,124.234928 C29.2295038,124.234928 25.765072,120.773786 25.765072,116.5 C25.765072,112.229504 29.2295038,108.765072 33.5,108.765072 C37.7704962,108.765072 41.234928,112.229504 41.234928,116.5 C41.234928,120.773786 37.7704962,124.234928 33.5,124.234928" id="Fill-11" fill="#27BBE9"></path>
                        <path d="M86.5,98 C76.2843678,98 68,106.284368 68,116.5 C68,126.718922 76.2843678,135 86.5,135 C96.7189223,135 105,126.718922 105,116.5 C105,106.284368 96.7189223,98 86.5,98 M86.5,124.234928 C82.2295038,124.234928 78.765072,120.773786 78.765072,116.5 C78.765072,112.229504 82.2295038,108.765072 86.5,108.765072 C90.7704962,108.765072 94.234928,112.229504 94.234928,116.5 C94.234928,120.773786 90.7704962,124.234928 86.5,124.234928" id="Fill-13" fill="#27BBE9"></path>
                        <g id="Group-17">
                            <mask id="mask-2" fill="white">
                                <use xlink:href="#path-1"></use>
                            </mask>
                            <g id="Clip-16"></g>
                            <path d="M86.9550054,149 L32.1967892,149 C14.4441405,149 -0.00131891892,134.497333 -0.00131891892,116.670311 C-0.00131891892,98.8432889 14.4441405,84.3373111 32.1967892,84.3373111 L50.5660324,84.3373111 L50.5660324,80.0626667 C32.2891135,75.9006 19.2812757,59.7192 19.2812757,40.6604444 C19.2812757,18.3468667 37.3570595,0.195355556 59.5775459,0.195355556 C81.7947351,0.195355556 99.8705189,18.3468667 99.8705189,40.6604444 C99.8705189,59.7192 86.8626811,75.9006 68.5857622,80.0626667 L68.5857622,84.3373111 L86.9550054,84.3373111 C104.707654,84.3373111 119.153114,98.8432889 119.153114,116.670311 C119.153114,134.497333 104.707654,149 86.9550054,149 L86.9550054,149 Z M32.1967892,90.3900222 C17.7678162,90.3900222 6.02614054,102.177578 6.02614054,116.670311 C6.02614054,131.159733 17.7678162,142.947289 32.1967892,142.947289 L86.9550054,142.947289 C101.383978,142.947289 113.125654,131.159733 113.125654,116.670311 C113.125654,102.177578 101.383978,90.3900222 86.9550054,90.3900222 L62.5583027,90.3900222 L62.5583027,74.9933556 L65.0873297,74.5827778 C81.7518703,71.8709778 93.8430595,57.6034 93.8430595,40.6604444 C93.8430595,21.6844667 78.4710595,6.24806667 59.5775459,6.24806667 C40.6807351,6.24806667 25.3087351,21.6844667 25.3087351,40.6604444 C25.3087351,57.6034 37.3999243,71.8709778 54.0644649,74.5827778 L56.5934919,74.9933556 L56.5934919,90.3900222 L32.1967892,90.3900222 Z" id="Fill-15" fill="#27BBE9" mask="url(#mask-2)"></path>
                        </g>
                    </g>
                </g>
            </g>
        </g>
    </g>
</svg>