<?xml version="1.0" encoding="UTF-8"?>
<svg width="272px" height="138px" viewBox="0 0 272 138" version="1.1" xmlns="http://www.w3.org/2000/svg" xmlns:xlink="http://www.w3.org/1999/xlink">
    <!-- Generator: sketchtool 56.3 (101010) - https://sketch.com -->
    <title>C08C962F-F36E-42C4-83EA-192AF5A78223</title>
    <desc>Created with sketchtool.</desc>
    <defs>
        <polygon id="path-1" points="0 0.185229851 129.483015 0.185229851 129.483015 136.843629 0 136.843629"></polygon>
        <polygon id="path-3" points="0.312183946 0.0917658863 69.7663645 0.0917658863 69.7663645 136.749164 0.312183946 136.749164"></polygon>
    </defs>
    <g id="Page-1" stroke="none" stroke-width="1" fill="none" fill-rule="evenodd">
        <g id="Charging-Basics" transform="translate(-166.000000, -996.000000)">
            <g id="Group-17" transform="translate(166.000000, 996.000000)">
                <g id="Group-3">
                    <mask id="mask-2" fill="white">
                        <use xlink:href="#path-1"></use>
                    </mask>
                    <g id="Clip-2"></g>
                    <path d="M127.440774,32.1225585 C127.310323,31.9381271 127.166376,31.7626923 126.999938,31.5962542 L97.8102893,1.70036789 C95.8760084,-0.287892977 92.6821957,-0.323879599 90.6894365,1.61939799 C88.7101722,3.55817726 88.6696873,6.74749164 90.6084666,8.73575251 L107.283768,25.8114047 C107.225289,26.1442809 107.193801,26.4861538 107.193801,26.8325251 L107.193801,43.6967559 C107.193801,45.4241137 107.918032,47.0839967 109.164069,48.2715552 L117.315038,55.9636957 L117.315038,98.6798161 C117.319537,99.8133946 117.198082,100.969465 116.959671,101.9501 C116.590808,103.448043 116.015022,104.406187 115.335774,104.99097 C114.980406,105.296856 114.56656,105.553261 113.896309,105.782676 C113.239554,106.007592 112.312898,106.192023 111.003885,106.192023 C109.303517,106.187525 108.147446,105.872642 107.261276,105.454298 C105.961259,104.838027 105.120072,103.920368 104.454319,102.692324 C103.793065,101.482274 103.478182,99.9573411 103.496176,98.8777425 L103.496176,71.2310201 C103.500674,66.3863211 102.110691,62.1084114 100.077446,58.7211706 C97.0140853,53.6065719 92.7361756,50.4127592 89.3129482,48.39301 C87.7880151,47.4933445 86.4115268,46.8320903 85.3229314,46.3552676 L85.3229314,21.6369565 C85.3184331,13.3195485 78.5844365,6.58555184 70.2715268,6.58105351 L24.9058913,6.58105351 C16.5884833,6.58555184 9.84998829,13.3195485 9.84099164,21.6369565 L9.84099164,123.569064 L-0.00134949833,123.569064 L-0.00134949833,136.843629 L95.1742692,136.843629 L95.1742692,123.569064 L85.3229314,123.569064 L85.3229314,60.3225753 C85.4893696,60.4485284 85.660306,60.5744816 85.8177475,60.7049331 C87.3471789,61.9239799 88.7416605,63.4129264 89.722296,65.108796 C90.6939348,66.8226589 91.3102057,68.7164548 91.3237007,71.2310201 L91.3237007,98.8777425 C91.3237007,100.915485 91.6385836,103.034197 92.3403227,105.1799 C93.3884331,108.373712 95.3182157,111.679983 98.5075301,114.235033 C101.642865,116.781087 105.983751,118.36 110.877931,118.36 C110.927413,118.36 110.9634,118.36 111.003885,118.355502 C114.251677,118.364498 117.252062,117.739231 119.820607,116.479699 C123.729654,114.603896 126.347681,111.306622 127.701677,108.072324 C129.096159,104.815535 129.474018,101.567742 129.483015,98.6798161 L129.483015,36.6523746 C129.483015,34.8530435 128.691309,33.2381438 127.440774,32.1225585 L127.440774,32.1225585 Z M74.2120619,61.3257023 C74.2120619,63.4983946 72.4397207,65.2617391 70.2715268,65.2617391 L24.9103896,65.2617391 C22.733199,65.2617391 20.9653562,63.4983946 20.9653562,61.3257023 L20.9653562,21.6369565 C20.9653562,19.4687625 22.733199,17.6964214 24.9103896,17.6964214 L70.2715268,17.6964214 C72.4397207,17.6964214 74.2120619,19.4687625 74.2120619,21.6369565 L74.2120619,61.3257023 Z" id="Fill-1" fill="#27BBE9" mask="url(#mask-2)"></path>
                </g>
                <path d="M36.6305299,32.3879599 L30.8443865,32.3879599 C30.208001,32.3879599 29.6889632,32.897049 29.6889632,33.5222461 L29.6889632,42.9493258 C29.6889632,43.5789886 30.208001,44.083612 30.8443865,44.083612 L36.6305299,44.083612 C37.2669154,44.083612 37.7859532,43.5789886 37.7859532,42.9493258 L37.7859532,33.5222461 C37.7859532,32.897049 37.2669154,32.3879599 36.6305299,32.3879599" id="Fill-4" fill="#27BBE9"></path>
                <path d="M50.1164864,32.3879599 L44.3348564,32.3879599 C43.6939576,32.3879599 43.1839465,32.897049 43.1839465,33.5222461 L43.1839465,42.9493258 C43.1839465,43.5789886 43.6939576,44.083612 44.3348564,44.083612 L50.1164864,44.083612 C50.7573853,44.083612 51.2809365,43.5789886 51.2809365,42.9493258 L51.2809365,33.5222461 C51.2809365,32.897049 50.7573853,32.3879599 50.1164864,32.3879599" id="Fill-6" fill="#27BBE9"></path>
                <path d="M63.6295232,32.3879599 L57.8343531,32.3879599 C57.1979676,32.3879599 56.6789298,32.897049 56.6789298,33.5222461 L56.6789298,42.9493258 C56.6789298,43.5789886 57.1979676,44.083612 57.8343531,44.083612 L63.6295232,44.083612 C64.2613953,44.083612 64.7759197,43.5789886 64.7759197,42.9493258 L64.7759197,33.5222461 C64.7759197,32.897049 64.2613953,32.3879599 63.6295232,32.3879599" id="Fill-8" fill="#27BBE9"></path>
                <g id="Group-12" transform="translate(184.431438, 0.899666)">
                    <mask id="mask-4" fill="white">
                        <use xlink:href="#path-3"></use>
                    </mask>
                    <g id="Clip-11"></g>
                    <path d="M69.0826187,44.1933712 C68.6507793,43.7705284 68.043505,43.5051271 67.4317324,43.5051271 L61.1520669,43.5051271 L61.1520669,6.90673244 C61.1520669,3.14163211 58.1561806,0.0917658863 54.4810468,0.0917658863 C50.7834214,0.0917658863 47.8010301,3.14163211 47.8010301,6.90673244 L47.8010301,43.5051271 L22.2775184,43.5051271 L22.2775184,6.90673244 C22.2775184,3.14163211 19.2951271,0.0917658863 15.6064983,0.0917658863 C11.9133712,0.0917658863 8.91748495,3.14163211 8.91748495,6.90673244 L8.91748495,43.5051271 L2.65131438,43.5051271 C2.03054515,43.5051271 1.43226756,43.7705284 1.00042809,44.1933712 C0.564090301,44.6387057 0.312183946,45.2549766 0.312183946,45.8937391 L0.312183946,95.4967993 C0.312183946,96.1130702 0.550595318,96.7338395 1.00042809,97.1791739 C1.43676589,97.62001 2.02604682,97.8854114 2.65131438,97.8854114 L29.2949097,97.8854114 C29.2949097,112.869341 17.3203612,125.059809 2.6063311,125.059809 L2.6063311,136.750963 C23.6540067,136.750963 40.7791405,119.310946 40.7791405,97.8854114 L67.4317324,97.8854114 C68.043505,97.8854114 68.6507793,97.62001 69.0826187,97.1791739 C69.5144582,96.7338395 69.7663645,96.1130702 69.7663645,95.4967993 L69.7663645,45.8937391 C69.7663645,45.2549766 69.5144582,44.6387057 69.0826187,44.1933712" id="Fill-10" fill="#27BBE9" mask="url(#mask-4)"></path>
                </g>
                <path d="M267.400832,99.7662811 L234.211317,66.5752508 L267.400832,33.3842206 L269,31.7894971 L267.400832,30.1902559 L255.89947,18.6928866 L254.304819,17.0936455 L252.705651,18.6928866 L219.516136,51.8793993 C208.452964,40.8157225 197.39431,29.7565634 186.331138,18.6928866 L184.73197,17.0936455 L183.137319,18.6928866 L171.635957,30.1902559 L170.036789,31.7894971 L171.635957,33.3842206 L204.825473,66.5752508 L171.635957,99.7662811 L170.036789,101.365522 L171.635957,102.960246 L183.137319,114.462133 L184.73197,116.056856 L186.331138,114.462133 L219.516136,81.2711024 L252.705651,114.462133 L254.304819,116.056856 L255.89947,114.462133 L267.400832,102.960246 L269,101.365522 L267.400832,99.7662811 Z" id="Fill-13" fill="#ED6929"></path>
                <path d="M267.400832,99.7662811 L234.211317,66.5752508 L267.400832,33.3842206 L269,31.7894971 L267.400832,30.1902559 L255.89947,18.6928866 L254.304819,17.0936455 L252.705651,18.6928866 L219.516136,51.8793993 C208.452964,40.8157225 197.39431,29.7565634 186.331138,18.6928866 L184.73197,17.0936455 L183.137319,18.6928866 L171.635957,30.1902559 L170.036789,31.7894971 L171.635957,33.3842206 L204.825473,66.5752508 L171.635957,99.7662811 L170.036789,101.365522 L171.635957,102.960246 L183.137319,114.462133 L184.73197,116.056856 L186.331138,114.462133 L219.516136,81.2711024 L252.705651,114.462133 L254.304819,116.056856 L255.89947,114.462133 L267.400832,102.960246 L269,101.365522 L267.400832,99.7662811 Z" id="Stroke-15" stroke="#FEFEFE" stroke-width="3"></path>
            </g>
        </g>
    </g>
</svg>