<?xml version="1.0" encoding="UTF-8"?>
<svg width="254px" height="50px" viewBox="0 0 254 50" version="1.1" xmlns="http://www.w3.org/2000/svg" xmlns:xlink="http://www.w3.org/1999/xlink">
    <!-- Generator: sketchtool 56.3 (101010) - https://sketch.com -->
    <title>5DEE8E51-2562-4CF3-AC21-B08FF0F273D7</title>
    <desc>Created with sketchtool.</desc>
    <defs>
        <polygon id="path-1" points="0.168251232 0.280972906 15.6217611 0.280972906 15.6217611 15.7343719 0.168251232 15.7343719"></polygon>
        <polygon id="path-3" points="0.446428571 50 254.017857 50 254.017857 0.892857143 0.446428571 0.892857143"></polygon>
    </defs>
    <g id="Symbols" stroke="none" stroke-width="1" fill="none" fill-rule="evenodd">
        <g id="Sway-Electric-Logo" transform="translate(-1.000000, 0.000000)">
            <g id="Logo">
                <g id="Group-3" transform="translate(17.410714, 0.000000)">
                    <mask id="mask-2" fill="white">
                        <use xlink:href="#path-1"></use>
                    </mask>
                    <g id="Clip-2"></g>
                    <path d="M2.36061576,15.7343719 L15.6217611,15.7343719 C15.6217611,7.19988916 8.70328818,0.280862069 0.168251232,0.280862069 L0.168251232,13.5420074 C1.25501232,13.7963793 2.10679803,14.648165 2.36061576,15.7343719" id="Fill-1" fill="#38A1D8" mask="url(#mask-2)"></path>
                </g>
                <path d="M16.5178571,13.9180691 L16.5178571,0.892857143 C8.13521414,0.892857143 1.33928571,7.68824125 1.33928571,16.0714286 L14.3644977,16.0714286 C14.6137997,15.0040024 15.450431,14.1673711 16.5178571,13.9180691" id="Fill-4" fill="#27BBE9"></path>
                <path d="M14.3644977,33.9285714 L1.33928571,33.9285714 C1.33928571,42.3112144 8.13521414,49.1071429 16.5178571,49.1071429 L16.5178571,36.0819309 C15.450431,35.8326289 14.6137997,34.9959976 14.3644977,33.9285714" id="Fill-6" fill="#E9422D"></path>
                <path d="M19.5640737,33.9285714 C19.3147718,34.9959976 18.4781404,35.8326289 17.4107143,36.0819309 L17.4107143,49.1071429 C25.7939016,49.1071429 32.5892857,42.3112144 32.5892857,33.9285714 L19.5640737,33.9285714 Z" id="Fill-8" fill="#ED6929"></path>
                <path d="M19.5640737,32.1428571 L32.5892857,32.1428571 C32.5892857,24.3923548 26.8988864,18.0014643 19.5134513,16.9642857 C19.2200588,17.9629483 18.422619,18.7371182 17.4107143,18.9764671 L17.4107143,29.9661578 C18.4781404,30.2187121 19.3147718,31.0638613 19.5640737,32.1428571" id="Fill-10" fill="#EBE32C"></path>
                <path d="M16.5178571,30.1306758 L16.5178571,19.1409851 C15.450431,18.8884307 14.6137997,18.0432815 14.3644977,16.9642857 L1.33928571,16.9642857 C1.33928571,24.714788 7.03022939,31.1056786 14.4151201,32.1428571 C14.709057,31.1441945 15.5064967,30.3700247 16.5178571,30.1306758" id="Fill-12" fill="#9CC856"></path>
                <path d="M49.3622449,32.4857841 C48.3070501,32.1193511 47.4779685,31.6440543 46.875,31.0604549 L47.6717798,29.3096568 C48.2456765,29.8483639 48.9816211,30.2860634 49.879075,30.6227554 C50.7759906,30.9594473 51.6987477,31.1277933 52.6462695,31.1277933 C53.8952756,31.1277933 54.8282617,30.9072601 55.445766,30.4656325 C56.0627319,30.024566 56.3717532,29.4370386 56.3717532,28.7036113 C56.3717532,28.1649042 56.2032451,27.7277659 55.8656904,27.3905128 C55.5281358,27.0538208 55.1119799,26.7956903 54.6166843,26.6161213 C54.1213888,26.4365523 53.4215147,26.2345371 52.517062,26.0100758 C51.3827276,25.7261323 50.4675076,25.4416276 49.7714021,25.1571229 C49.0747582,24.8726182 48.4793268,24.4354798 47.9840313,23.8440243 C47.4887358,23.2525688 47.241088,22.4557312 47.241088,21.4535116 C47.241088,20.6157098 47.4526653,19.8598364 47.8763583,19.1864525 C48.299513,18.5130686 48.9423204,17.9743615 49.8037039,17.5703312 C50.6650875,17.1663009 51.7342798,16.9642857 53.0123575,16.9642857 C53.9028127,16.9642857 54.7781937,17.0843725 55.6395773,17.3234238 C56.5009608,17.5630362 57.2401355,17.9070231 57.8576398,18.3559457 L57.1469984,20.1516361 C56.5154966,19.7330158 55.8403873,19.4148419 55.1227472,19.1976756 C54.405107,18.9810704 53.7014644,18.8722067 53.0123575,18.8722067 C51.7918848,18.8722067 50.8766648,19.1045241 50.2666976,19.5680367 C49.656192,20.0321104 49.3514776,20.6308609 49.3514776,21.3637271 C49.3514776,21.9024342 49.5237543,22.3395725 49.8683077,22.6768256 C50.2128611,23.0135176 50.6403227,23.275015 51.1496157,23.461879 C51.6594471,23.6493042 52.3517841,23.8479524 53.2277034,24.0572626 C54.3620378,24.3417673 55.2734893,24.6262719 55.9625961,24.9102155 C56.6517029,25.194159 57.2439041,25.6284916 57.7391996,26.212091 C58.2344951,26.7956903 58.4821429,27.5813049 58.4821429,28.5694957 C58.4821429,29.3921463 58.266797,30.1440917 57.8361052,30.8247706 C57.4054135,31.5060106 56.7523771,32.0447177 55.8764577,32.4408919 C55.0005384,32.8376272 53.923809,33.0357143 52.6462695,33.0357143 C51.5119351,33.0357143 50.4174397,32.8527783 49.3622449,32.4857841" id="Fill-14" fill="#AAACAC"></path>
                <polygon id="Fill-16" fill="#AAACAC" points="87.0535714 16.9642857 81.9389854 32.1428571 79.6437336 32.1428571 75.4685614 20.0216837 71.2933891 32.1428571 68.9544182 32.1428571 63.8392857 16.9642857 66.0908184 16.9642857 70.2222716 29.3022959 74.5286011 16.9642857 76.5396788 16.9642857 80.7585702 29.3673469 84.9774616 16.9642857"></polygon>
                <path d="M100.158966,26.6135204 L96.8528314,19.1760204 L93.5466964,26.6135204 L100.158966,26.6135204 Z M100.925289,28.3482143 L92.7809211,28.3482143 L91.0944639,32.1428571 L88.8392857,32.1428571 L95.7799796,16.9642857 L97.9475781,16.9642857 L104.910714,32.1428571 L102.611199,32.1428571 L100.925289,28.3482143 Z" id="Fill-18" fill="#AAACAC"></path>
                <polygon id="Fill-20" fill="#AAACAC" points="114.918893 26.8954082 114.918893 32.1428571 112.759678 32.1428571 112.759678 26.8520408 106.696429 16.9642857 109.030125 16.9642857 113.915622 24.9650191 118.822928 16.9642857 120.982143 16.9642857"></polygon>
                <polygon id="Fill-22" fill="#AAACAC" points="144.196429 31.1454438 144.196429 32.1428571 134.375 32.1428571 134.375 16.9642857 143.891415 16.9642857 143.891415 17.9616991 135.412045 17.9616991 135.412045 23.9461792 142.99671 23.9461792 142.99671 24.9224517 135.412045 24.9224517 135.412045 31.1454438"></polygon>
                <polygon id="Fill-24" fill="#AAACAC" points="150.446429 16.9642857 151.549717 16.9642857 151.549717 31.1459503 160.267857 31.1459503 160.267857 32.1428571 150.446429 32.1428571"></polygon>
                <polygon id="Fill-26" fill="#AAACAC" points="176.339286 31.1454438 176.339286 32.1428571 166.517857 32.1428571 166.517857 16.9642857 176.033764 16.9642857 176.033764 17.9616991 167.554902 17.9616991 167.554902 23.9461792 175.139567 23.9461792 175.139567 24.9224517 167.554902 24.9224517 167.554902 31.1454438"></polygon>
                <path d="M185.839753,31.9945035 C184.555906,31.3001743 183.544001,30.3421472 182.805205,29.1198562 C182.065826,27.8975652 181.696429,26.5241855 181.696429,24.9997171 C181.696429,23.4758145 182.065826,22.1024348 182.805205,20.8801438 C183.544001,19.6578528 184.555906,18.6998257 185.839753,18.0054965 C187.123599,17.3117332 188.56676,16.9642857 190.169818,16.9642857 C191.352124,16.9642857 192.441643,17.149327 193.438375,17.5188437 C194.43394,17.8889262 195.282446,18.4361278 195.982143,19.1598824 L195.235761,19.906838 C193.927988,18.6545557 192.254902,18.0281316 190.216503,18.0281316 C188.846872,18.0281316 187.602708,18.330309 186.48226,18.9335323 C185.361811,19.5373214 184.481793,20.3708559 183.843954,21.4347017 C183.205532,22.4985476 182.886905,23.686886 182.886905,24.9997171 C182.886905,26.313114 183.205532,27.5014524 183.843954,28.5647324 C184.481793,29.6285782 185.361811,30.4626786 186.48226,31.0659019 C187.602708,31.6702568 188.846872,31.9718684 190.216503,31.9718684 C192.239729,31.9718684 193.912232,31.3380879 195.235761,30.0705269 L195.982143,30.8174825 C195.282446,31.5412372 194.429855,32.0929658 193.42612,32.4698388 C192.422386,32.8472778 191.336951,33.0357143 190.169818,33.0357143 C188.56676,33.0357143 187.123599,32.6888326 185.839753,31.9945035" id="Fill-28" fill="#AAACAC"></path>
                <polygon id="Fill-30" fill="#AAACAC" points="203.443533 17.9616991 197.767857 17.9616991 197.767857 16.9642857 210.267857 16.9642857 210.267857 17.9616991 204.592181 17.9616991 204.592181 32.1428571 203.443533 32.1428571"></polygon>
                <path d="M220.980502,26.2017428 C222.573283,26.2017428 223.790006,25.843975 224.62907,25.1284393 C225.468135,24.4129036 225.887933,23.3976019 225.887933,22.081992 C225.887933,20.7663821 225.468135,19.7505382 224.62907,19.0355446 C223.790006,18.3194669 222.573283,17.9616991 220.980502,17.9616991 L216.71317,17.9616991 L216.71317,26.2017428 L220.980502,26.2017428 Z M225.994617,32.1428571 L222.431394,27.0690588 C221.904912,27.1411544 221.421104,27.1774733 220.980502,27.1774733 L216.71317,27.1774733 L216.71317,32.1428571 L215.625,32.1428571 L215.625,16.9642857 L220.980502,16.9642857 C222.858661,16.9642857 224.330357,17.4163742 225.39719,18.3194669 C226.464023,19.2231017 226.99744,20.4774574 226.99744,22.081992 C226.99744,23.2815984 226.694992,24.2898532 226.090632,25.1062143 C225.485737,25.9236596 224.621603,26.4982564 223.498227,26.8305469 L227.232143,32.1428571 L225.994617,32.1428571 Z" id="Fill-32" fill="#AAACAC"></path>
                <mask id="mask-4" fill="white">
                    <use xlink:href="#path-3"></use>
                </mask>
                <g id="Clip-35"></g>
                <polygon id="Fill-34" fill="#AAACAC" mask="url(#mask-4)" points="233.482143 32.1428571 235.267857 32.1428571 235.267857 16.9642857 233.482143 16.9642857"></polygon>
                <path d="M244.768324,31.9945035 C243.484477,31.3001743 242.472572,30.3421472 241.733777,29.1198562 C240.994398,27.8975652 240.625,26.5241855 240.625,24.9997171 C240.625,23.4758145 240.994398,22.1024348 241.733777,20.8801438 C242.472572,19.6578528 243.484477,18.6998257 244.768324,18.0054965 C246.052171,17.3117332 247.495331,16.9642857 249.098389,16.9642857 C250.280696,16.9642857 251.370215,17.149327 252.366947,17.5188437 C253.362512,17.8889262 254.211018,18.4361278 254.910714,19.1598824 L254.164332,19.906838 C252.856559,18.6545557 251.183473,18.0281316 249.145075,18.0281316 C247.775444,18.0281316 246.531279,18.330309 245.410831,18.9335323 C244.290383,19.5373214 243.410364,20.3708559 242.772526,21.4347017 C242.134104,22.4985476 241.815476,23.686886 241.815476,24.9997171 C241.815476,26.313114 242.134104,27.5014524 242.772526,28.5647324 C243.410364,29.6285782 244.290383,30.4626786 245.410831,31.0659019 C246.531279,31.6702568 247.775444,31.9718684 249.145075,31.9718684 C251.168301,31.9718684 252.840803,31.3380879 254.164332,30.0705269 L254.910714,30.8174825 C254.211018,31.5412372 253.358427,32.0929658 252.354692,32.4698388 C251.350957,32.8472778 250.265523,33.0357143 249.098389,33.0357143 C247.495331,33.0357143 246.052171,32.6888326 244.768324,31.9945035" id="Fill-36" fill="#AAACAC" mask="url(#mask-4)"></path>
            </g>
        </g>
    </g>
</svg>